<?xml version="1.0" encoding="UTF-8" standalone="no"?>
<!DOCTYPE svg PUBLIC "-//W3C//DTD SVG 1.1//EN"
 "http://www.w3.org/Graphics/SVG/1.1/DTD/svg11.dtd">
<!-- Generated by graphviz version 2.43.0 (0)
 -->
<!-- Title: fuse.plugins.community.gem5.plugin.Gem5Plugin.compatible_gem5_interfaces Pages: 1 -->
<svg width="880pt" height="98pt"
 viewBox="0.00 0.00 880.00 97.50" xmlns="http://www.w3.org/2000/svg" xmlns:xlink="http://www.w3.org/1999/xlink">
<g id="graph0" class="graph" transform="scale(1 1) rotate(0) translate(4 93.5)">
<title>fuse.plugins.community.gem5.plugin.Gem5Plugin.compatible_gem5_interfaces</title>
<!-- Node1 -->
<g id="Node000001" class="node">
<title>Node1</title>
<g id="a_Node000001"><a xlink:title=" ">
<polygon fill="#999999" stroke="#666666" points="872,-57 651,-57 651,-27 872,-27 872,-57"/>
<text text-anchor="start" x="659" y="-45" font-family="Helvetica,sans-Serif" font-size="10.00">fuse.plugins.community.gem5.plugin.</text>
<text text-anchor="middle" x="761.5" y="-34" font-family="Helvetica,sans-Serif" font-size="10.00">Gem5Plugin.compatible_gem5_interfaces</text>
</a>
</g>
</g>
<!-- Node2 -->
<g id="Node000002" class="node">
<title>Node2</title>
<g id="a_Node000002"><a xlink:href="classfuse_1_1plugins_1_1community_1_1gem5_1_1plugin_1_1Gem5Plugin.html#a5cb1551963a0b20d8b1be90655b8ea6b" target="_top" xlink:title=" ">
<polygon fill="white" stroke="#666666" points="615,-57 415,-57 415,-27 615,-27 615,-57"/>
<text text-anchor="start" x="423" y="-45" font-family="Helvetica,sans-Serif" font-size="10.00">fuse.plugins.community.gem5.plugin.</text>
<text text-anchor="middle" x="515" y="-34" font-family="Helvetica,sans-Serif" font-size="10.00">Gem5Plugin.check_link_compatibility</text>
</a>
</g>
</g>
<!-- Node1&#45;&gt;Node2 -->
<g id="edge1_Node000001_Node000002" class="edge">
<title>Node1&#45;&gt;Node2</title>
<g id="a_edge1_Node000001_Node000002"><a xlink:title=" ">
<path fill="none" stroke="#63b8ff" d="M640.5,-42C632.07,-42 623.62,-42 615.32,-42"/>
<polygon fill="#63b8ff" stroke="#63b8ff" points="640.77,-45.5 650.77,-42 640.77,-38.5 640.77,-45.5"/>
</a>
</g>
</g>
<!-- Node3 -->
<g id="Node000003" class="node">
<title>Node3</title>
<g id="a_Node000003"><a xlink:href="classfuse_1_1core_1_1ui_1_1model__scene_1_1ModelScene.html#a33a2a5288073c16fb1dba85fedef8bcd" target="_top" xlink:title=" ">
<polygon fill="white" stroke="#666666" points="358,-89.5 200,-89.5 200,-48.5 358,-48.5 358,-89.5"/>
<text text-anchor="start" x="208" y="-77.5" font-family="Helvetica,sans-Serif" font-size="10.00">fuse.core.ui.model</text>
<text text-anchor="start" x="208" y="-66.5" font-family="Helvetica,sans-Serif" font-size="10.00">_scene.ModelScene.highlight</text>
<text text-anchor="middle" x="279" y="-55.5" font-family="Helvetica,sans-Serif" font-size="10.00">_compatible_ports</text>
</a>
</g>
</g>
<!-- Node2&#45;&gt;Node3 -->
<g id="edge2_Node000002_Node000003" class="edge">
<title>Node2&#45;&gt;Node3</title>
<g id="a_edge2_Node000002_Node000003"><a xlink:title=" ">
<path fill="none" stroke="#63b8ff" d="M404.51,-54.63C388.84,-56.44 373,-58.27 358.1,-59.99"/>
<polygon fill="#63b8ff" stroke="#63b8ff" points="405.23,-58.07 414.76,-53.45 404.43,-51.12 405.23,-58.07"/>
</a>
</g>
</g>
<!-- Node5 -->
<g id="Node000005" class="node">
<title>Node5</title>
<g id="a_Node000005"><a xlink:href="classfuse_1_1plugins_1_1community_1_1gem5_1_1plugin_1_1Gem5Plugin.html#ada8f27c73f34b379aca51d39f194f387" target="_top" xlink:title=" ">
<polygon fill="white" stroke="#666666" points="379,-30 179,-30 179,0 379,0 379,-30"/>
<text text-anchor="start" x="187" y="-18" font-family="Helvetica,sans-Serif" font-size="10.00">fuse.plugins.community.gem5.plugin.</text>
<text text-anchor="middle" x="279" y="-7" font-family="Helvetica,sans-Serif" font-size="10.00">Gem5Plugin.validate_links</text>
</a>
</g>
</g>
<!-- Node2&#45;&gt;Node5 -->
<g id="edge4_Node000002_Node000005" class="edge">
<title>Node2&#45;&gt;Node5</title>
<g id="a_edge4_Node000002_Node000005"><a xlink:title=" ">
<path fill="none" stroke="#63b8ff" d="M404.73,-29.39C396.15,-28.4 387.52,-27.41 379.02,-26.43"/>
<polygon fill="#63b8ff" stroke="#63b8ff" points="404.43,-32.88 414.76,-30.55 405.23,-25.93 404.43,-32.88"/>
</a>
</g>
</g>
<!-- Node4 -->
<g id="Node000004" class="node">
<title>Node4</title>
<g id="a_Node000004"><a xlink:href="classfuse_1_1core_1_1ui_1_1model__scene_1_1ModelScene.html#a6135bfefd770a9430f7c19766940caf1" target="_top" xlink:title=" ">
<polygon fill="white" stroke="#666666" points="143,-89.5 0,-89.5 0,-48.5 143,-48.5 143,-89.5"/>
<text text-anchor="start" x="8" y="-77.5" font-family="Helvetica,sans-Serif" font-size="10.00">fuse.core.ui.model</text>
<text text-anchor="start" x="8" y="-66.5" font-family="Helvetica,sans-Serif" font-size="10.00">_scene.ModelScene.begin</text>
<text text-anchor="middle" x="71.5" y="-55.5" font-family="Helvetica,sans-Serif" font-size="10.00">_connection</text>
</a>
</g>
</g>
<!-- Node3&#45;&gt;Node4 -->
<g id="edge3_Node000003_Node000004" class="edge">
<title>Node3&#45;&gt;Node4</title>
<g id="a_edge3_Node000003_Node000004"><a xlink:title=" ">
<path fill="none" stroke="#63b8ff" d="M189.6,-69C174.08,-69 158.11,-69 143.15,-69"/>
<polygon fill="#63b8ff" stroke="#63b8ff" points="189.72,-72.5 199.72,-69 189.72,-65.5 189.72,-72.5"/>
</a>
</g>
</g>
</g>
</svg>
