<?xml version="1.0" encoding="UTF-8" standalone="no"?>
<!DOCTYPE svg PUBLIC "-//W3C//DTD SVG 1.1//EN"
 "http://www.w3.org/Graphics/SVG/1.1/DTD/svg11.dtd">
<!-- Generated by graphviz version 2.43.0 (0)
 -->
<!-- Title: fuse.core.ui.model_scene.ModelScene.highlight_compatible_ports Pages: 1 -->
<svg width="697pt" height="350pt"
 viewBox="0.00 0.00 697.00 349.50" xmlns="http://www.w3.org/2000/svg" xmlns:xlink="http://www.w3.org/1999/xlink">
<g id="graph0" class="graph" transform="scale(1 1) rotate(0) translate(4 345.5)">
<title>fuse.core.ui.model_scene.ModelScene.highlight_compatible_ports</title>
<!-- Node1 -->
<g id="Node000001" class="node">
<title>Node1</title>
<g id="a_Node000001"><a xlink:title=" ">
<polygon fill="#999999" stroke="#666666" points="158,-197 0,-197 0,-156 158,-156 158,-197"/>
<text text-anchor="start" x="8" y="-185" font-family="Helvetica,sans-Serif" font-size="10.00">fuse.core.ui.model</text>
<text text-anchor="start" x="8" y="-174" font-family="Helvetica,sans-Serif" font-size="10.00">_scene.ModelScene.highlight</text>
<text text-anchor="middle" x="79" y="-163" font-family="Helvetica,sans-Serif" font-size="10.00">_compatible_ports</text>
</a>
</g>
</g>
<!-- Node2 -->
<g id="Node000002" class="node">
<title>Node2</title>
<g id="a_Node000002"><a xlink:href="classfuse_1_1plugin__api_1_1interfaces_1_1FusePlugin.html#abff87124eb7d08d3b6b6156703206120" target="_top" xlink:title=" ">
<polygon fill="white" stroke="#666666" points="410,-341.5 216,-341.5 216,-311.5 410,-311.5 410,-341.5"/>
<text text-anchor="start" x="224" y="-329.5" font-family="Helvetica,sans-Serif" font-size="10.00">fuse.plugin_api.interfaces.</text>
<text text-anchor="middle" x="313" y="-318.5" font-family="Helvetica,sans-Serif" font-size="10.00">FusePlugin.check_link_compatibility</text>
</a>
</g>
</g>
<!-- Node1&#45;&gt;Node2 -->
<g id="edge1_Node000001_Node000002" class="edge">
<title>Node1&#45;&gt;Node2</title>
<g id="a_edge1_Node000001_Node000002"><a xlink:title=" ">
<path fill="none" stroke="#63b8ff" d="M92.59,-197.22C111.09,-225.74 148.38,-276.5 194,-302.5 197.94,-304.74 202.05,-306.78 206.29,-308.63"/>
<polygon fill="#63b8ff" stroke="#63b8ff" points="205.15,-311.94 215.74,-312.38 207.74,-305.44 205.15,-311.94"/>
</a>
</g>
</g>
<!-- Node3 -->
<g id="Node000003" class="node">
<title>Node3</title>
<g id="a_Node000003"><a xlink:href="classfuse_1_1plugins_1_1community_1_1gem5_1_1plugin_1_1Gem5Plugin.html#a5cb1551963a0b20d8b1be90655b8ea6b" target="_top" xlink:title=" ">
<polygon fill="white" stroke="#666666" points="413,-293.5 213,-293.5 213,-263.5 413,-263.5 413,-293.5"/>
<text text-anchor="start" x="221" y="-281.5" font-family="Helvetica,sans-Serif" font-size="10.00">fuse.plugins.community.gem5.plugin.</text>
<text text-anchor="middle" x="313" y="-270.5" font-family="Helvetica,sans-Serif" font-size="10.00">Gem5Plugin.check_link_compatibility</text>
</a>
</g>
</g>
<!-- Node1&#45;&gt;Node3 -->
<g id="edge2_Node000001_Node000003" class="edge">
<title>Node1&#45;&gt;Node3</title>
<g id="a_edge2_Node000001_Node000003"><a xlink:title=" ">
<path fill="none" stroke="#63b8ff" d="M104.1,-197.27C126.09,-215.13 160.21,-240.2 194,-254.5 199.11,-256.66 204.44,-258.64 209.87,-260.44"/>
<polygon fill="#63b8ff" stroke="#63b8ff" points="209.16,-263.88 219.75,-263.49 211.23,-257.19 209.16,-263.88"/>
</a>
</g>
</g>
<!-- Node5 -->
<g id="Node000005" class="node">
<title>Node5</title>
<g id="a_Node000005"><a xlink:href="classfuse_1_1plugins_1_1community_1_1sst_1_1plugin_1_1SSTPlugin.html#a6860e7c392b63a7572587a56da6929a1" target="_top" xlink:title=" ">
<polygon fill="white" stroke="#666666" points="407.5,-245.5 218.5,-245.5 218.5,-215.5 407.5,-215.5 407.5,-245.5"/>
<text text-anchor="start" x="226.5" y="-233.5" font-family="Helvetica,sans-Serif" font-size="10.00">fuse.plugins.community.sst.plugin.</text>
<text text-anchor="middle" x="313" y="-222.5" font-family="Helvetica,sans-Serif" font-size="10.00">SSTPlugin.check_link_compatibility</text>
</a>
</g>
</g>
<!-- Node1&#45;&gt;Node5 -->
<g id="edge4_Node000001_Node000005" class="edge">
<title>Node1&#45;&gt;Node5</title>
<g id="a_edge4_Node000001_Node000005"><a xlink:title=" ">
<path fill="none" stroke="#63b8ff" d="M158.09,-196.81C170.09,-199.8 182.36,-202.79 194,-205.5 205.31,-208.14 217.26,-210.8 229.04,-213.37"/>
<polygon fill="#63b8ff" stroke="#63b8ff" points="228.37,-216.8 238.88,-215.49 229.84,-209.96 228.37,-216.8"/>
</a>
</g>
</g>
<!-- Node6 -->
<g id="Node000006" class="node">
<title>Node6</title>
<g id="a_Node000006"><a xlink:href="classfuse_1_1core_1_1ui_1_1model__scene_1_1ModelScene.html#acab6a0cb62f127dd54d48e55a4cdb6b2" target="_top" xlink:title=" ">
<polygon fill="white" stroke="#666666" points="385,-197 241,-197 241,-156 385,-156 385,-197"/>
<text text-anchor="start" x="249" y="-185" font-family="Helvetica,sans-Serif" font-size="10.00">fuse.core.ui.model</text>
<text text-anchor="start" x="249" y="-174" font-family="Helvetica,sans-Serif" font-size="10.00">_scene.ModelScene.check</text>
<text text-anchor="middle" x="313" y="-163" font-family="Helvetica,sans-Serif" font-size="10.00">_link_compatibility</text>
</a>
</g>
</g>
<!-- Node1&#45;&gt;Node6 -->
<g id="edge5_Node000001_Node000006" class="edge">
<title>Node1&#45;&gt;Node6</title>
<g id="a_edge5_Node000001_Node000006"><a xlink:title=" ">
<path fill="none" stroke="#63b8ff" d="M158.22,-176.5C181.48,-176.5 207.02,-176.5 230.49,-176.5"/>
<polygon fill="#63b8ff" stroke="#63b8ff" points="230.75,-180 240.75,-176.5 230.75,-173 230.75,-180"/>
</a>
</g>
</g>
<!-- Node8 -->
<g id="Node000008" class="node">
<title>Node8</title>
<g id="a_Node000008"><a xlink:href="classfuse_1_1core_1_1model_1_1composite__flattening_1_1FlattenedScene.html#adafd82e063db893d7978e3f46c633c28" target="_top" xlink:title=" ">
<polygon fill="white" stroke="#666666" points="432,-137.5 194,-137.5 194,-107.5 432,-107.5 432,-137.5"/>
<text text-anchor="start" x="202" y="-125.5" font-family="Helvetica,sans-Serif" font-size="10.00">fuse.core.model.composite</text>
<text text-anchor="middle" x="313" y="-114.5" font-family="Helvetica,sans-Serif" font-size="10.00">_flattening.FlattenedScene.component_items</text>
</a>
</g>
</g>
<!-- Node1&#45;&gt;Node8 -->
<g id="edge7_Node000001_Node000008" class="edge">
<title>Node1&#45;&gt;Node8</title>
<g id="a_edge7_Node000001_Node000008"><a xlink:title=" ">
<path fill="none" stroke="#63b8ff" d="M155.58,-155.97C168.37,-152.68 181.54,-149.4 194,-146.5 203.95,-144.18 214.4,-141.87 224.81,-139.65"/>
<polygon fill="#63b8ff" stroke="#63b8ff" points="225.68,-143.05 234.74,-137.56 224.24,-136.2 225.68,-143.05"/>
</a>
</g>
</g>
<!-- Node9 -->
<g id="Node000009" class="node">
<title>Node9</title>
<g id="a_Node000009"><a xlink:href="classfuse_1_1core_1_1ui_1_1model__scene_1_1ModelScene.html#afe1202d65f4678c1893739c38b42dd01" target="_top" xlink:title=" ">
<polygon fill="white" stroke="#666666" points="414.5,-89.5 211.5,-89.5 211.5,-59.5 414.5,-59.5 414.5,-89.5"/>
<text text-anchor="start" x="219.5" y="-77.5" font-family="Helvetica,sans-Serif" font-size="10.00">fuse.core.ui.model</text>
<text text-anchor="middle" x="313" y="-66.5" font-family="Helvetica,sans-Serif" font-size="10.00">_scene.ModelScene.component_items</text>
</a>
</g>
</g>
<!-- Node1&#45;&gt;Node9 -->
<g id="edge8_Node000001_Node000009" class="edge">
<title>Node1&#45;&gt;Node9</title>
<g id="a_edge8_Node000001_Node000009"><a xlink:title=" ">
<path fill="none" stroke="#63b8ff" d="M104.1,-155.73C126.09,-137.87 160.21,-112.8 194,-98.5 199.11,-96.34 204.44,-94.36 209.87,-92.56"/>
<polygon fill="#63b8ff" stroke="#63b8ff" points="211.23,-95.81 219.75,-89.51 209.16,-89.12 211.23,-95.81"/>
</a>
</g>
</g>
<!-- Node10 -->
<g id="Node000010" class="node">
<title>Node10</title>
<g id="a_Node000010"><a xlink:href="classfuse_1_1plugins_1_1community_1_1sst_1_1external__validation_1_1fixtures_1_1SSTExternalValidationScene.html#a4689f4250a8d0755e053ec4b746ba53e" target="_top" xlink:title=" ">
<polygon fill="white" stroke="#666666" points="423.5,-41 202.5,-41 202.5,0 423.5,0 423.5,-41"/>
<text text-anchor="start" x="210.5" y="-29" font-family="Helvetica,sans-Serif" font-size="10.00">fuse.plugins.community.sst.external</text>
<text text-anchor="start" x="210.5" y="-18" font-family="Helvetica,sans-Serif" font-size="10.00">_validation.fixtures.SSTExternalValidation</text>
<text text-anchor="middle" x="313" y="-7" font-family="Helvetica,sans-Serif" font-size="10.00">Scene.component_items</text>
</a>
</g>
</g>
<!-- Node1&#45;&gt;Node10 -->
<g id="edge9_Node000001_Node000010" class="edge">
<title>Node1&#45;&gt;Node10</title>
<g id="a_edge9_Node000001_Node000010"><a xlink:title=" ">
<path fill="none" stroke="#63b8ff" d="M93.09,-155.61C111.9,-127.36 149.27,-77.44 194,-50.5 197.03,-48.67 200.18,-46.96 203.4,-45.34"/>
<polygon fill="#63b8ff" stroke="#63b8ff" points="205.06,-48.43 212.68,-41.07 202.13,-42.07 205.06,-48.43"/>
</a>
</g>
</g>
<!-- Node4 -->
<g id="Node000004" class="node">
<title>Node4</title>
<g id="a_Node000004"><a xlink:href="classfuse_1_1plugins_1_1community_1_1gem5_1_1plugin_1_1Gem5Plugin.html#aaa202631c3aa3576692344fbe458af06" target="_top" xlink:title=" ">
<polygon fill="white" stroke="#666666" points="689,-293.5 468,-293.5 468,-263.5 689,-263.5 689,-293.5"/>
<text text-anchor="start" x="476" y="-281.5" font-family="Helvetica,sans-Serif" font-size="10.00">fuse.plugins.community.gem5.plugin.</text>
<text text-anchor="middle" x="578.5" y="-270.5" font-family="Helvetica,sans-Serif" font-size="10.00">Gem5Plugin.compatible_gem5_interfaces</text>
</a>
</g>
</g>
<!-- Node3&#45;&gt;Node4 -->
<g id="edge3_Node000003_Node000004" class="edge">
<title>Node3&#45;&gt;Node4</title>
<g id="a_edge3_Node000003_Node000004"><a xlink:title=" ">
<path fill="none" stroke="#63b8ff" d="M413.24,-278.5C427.7,-278.5 442.72,-278.5 457.54,-278.5"/>
<polygon fill="#63b8ff" stroke="#63b8ff" points="457.76,-282 467.76,-278.5 457.76,-275 457.76,-282"/>
</a>
</g>
</g>
<!-- Node7 -->
<g id="Node000007" class="node">
<title>Node7</title>
<g id="a_Node000007"><a xlink:href="classfuse_1_1core_1_1ui_1_1model__scene_1_1ModelScene.html#a39decc6bb1fe1183c908bfbfcfbb56d1" target="_top" xlink:title=" ">
<polygon fill="white" stroke="#666666" points="657.5,-197 499.5,-197 499.5,-156 657.5,-156 657.5,-197"/>
<text text-anchor="start" x="507.5" y="-185" font-family="Helvetica,sans-Serif" font-size="10.00">fuse.core.ui.model</text>
<text text-anchor="start" x="507.5" y="-174" font-family="Helvetica,sans-Serif" font-size="10.00">_scene.ModelScene.endpoint</text>
<text text-anchor="middle" x="578.5" y="-163" font-family="Helvetica,sans-Serif" font-size="10.00">_for_port</text>
</a>
</g>
</g>
<!-- Node6&#45;&gt;Node7 -->
<g id="edge6_Node000006_Node000007" class="edge">
<title>Node6&#45;&gt;Node7</title>
<g id="a_edge6_Node000006_Node000007"><a xlink:title=" ">
<path fill="none" stroke="#63b8ff" d="M385.31,-176.5C417.21,-176.5 455.16,-176.5 488.87,-176.5"/>
<polygon fill="#63b8ff" stroke="#63b8ff" points="489.19,-180 499.19,-176.5 489.19,-173 489.19,-180"/>
</a>
</g>
</g>
</g>
</svg>
