<?xml version="1.0" encoding="UTF-8" standalone="no"?>
<!DOCTYPE svg PUBLIC "-//W3C//DTD SVG 1.1//EN"
 "http://www.w3.org/Graphics/SVG/1.1/DTD/svg11.dtd">
<!-- Generated by graphviz version 2.43.0 (0)
 -->
<!-- Title: app.MainWindow.confirm_close_composite_template_editor Pages: 1 -->
<svg width="1477pt" height="372pt"
 viewBox="0.00 0.00 1477.00 372.00" xmlns="http://www.w3.org/2000/svg" xmlns:xlink="http://www.w3.org/1999/xlink">
<g id="graph0" class="graph" transform="scale(1 1) rotate(0) translate(4 368)">
<title>app.MainWindow.confirm_close_composite_template_editor</title>
<!-- Node1 -->
<g id="Node000001" class="node">
<title>Node1</title>
<g id="a_Node000001"><a xlink:title=" ">
<polygon fill="#999999" stroke="#666666" points="153,-155.5 0,-155.5 0,-114.5 153,-114.5 153,-155.5"/>
<text text-anchor="start" x="8" y="-143.5" font-family="Helvetica,sans-Serif" font-size="10.00">app.MainWindow.confirm</text>
<text text-anchor="start" x="8" y="-132.5" font-family="Helvetica,sans-Serif" font-size="10.00">_close_composite_template</text>
<text text-anchor="middle" x="76.5" y="-121.5" font-family="Helvetica,sans-Serif" font-size="10.00">_editor</text>
</a>
</g>
</g>
<!-- Node2 -->
<g id="Node000002" class="node">
<title>Node2</title>
<g id="a_Node000002"><a xlink:href="classapp_1_1MainWindow.html#a99962044eb7efe05abd56ac10f6381d6" target="_top" xlink:title=" ">
<polygon fill="white" stroke="#666666" points="315,-155.5 189,-155.5 189,-114.5 315,-114.5 315,-155.5"/>
<text text-anchor="start" x="197" y="-143.5" font-family="Helvetica,sans-Serif" font-size="10.00">app.MainWindow.save</text>
<text text-anchor="start" x="197" y="-132.5" font-family="Helvetica,sans-Serif" font-size="10.00">_composite_template</text>
<text text-anchor="middle" x="252" y="-121.5" font-family="Helvetica,sans-Serif" font-size="10.00">_changes_for_editor</text>
</a>
</g>
</g>
<!-- Node1&#45;&gt;Node2 -->
<g id="edge1_Node000001_Node000002" class="edge">
<title>Node1&#45;&gt;Node2</title>
<g id="a_edge1_Node000001_Node000002"><a xlink:title=" ">
<path fill="none" stroke="#63b8ff" d="M153.09,-135C161.6,-135 170.25,-135 178.71,-135"/>
<polygon fill="#63b8ff" stroke="#63b8ff" points="178.92,-138.5 188.92,-135 178.92,-131.5 178.92,-138.5"/>
</a>
</g>
</g>
<!-- Node3 -->
<g id="Node000003" class="node">
<title>Node3</title>
<g id="a_Node000003"><a xlink:href="classapp_1_1MainWindow.html#a9b741d7b13cdb1a408e3506f599ed340" target="_top" xlink:title=" ">
<polygon fill="white" stroke="#666666" points="499.5,-241 375.5,-241 375.5,-211 499.5,-211 499.5,-241"/>
<text text-anchor="start" x="383.5" y="-229" font-family="Helvetica,sans-Serif" font-size="10.00">app.MainWindow.load</text>
<text text-anchor="middle" x="437.5" y="-218" font-family="Helvetica,sans-Serif" font-size="10.00">_framework_targets</text>
</a>
</g>
</g>
<!-- Node2&#45;&gt;Node3 -->
<g id="edge2_Node000002_Node000003" class="edge">
<title>Node2&#45;&gt;Node3</title>
<g id="a_edge2_Node000002_Node000003"><a xlink:title=" ">
<path fill="none" stroke="#63b8ff" d="M278.22,-155.66C297.23,-170.36 324.48,-189.62 351,-202 355.68,-204.19 360.6,-206.21 365.62,-208.08"/>
<polygon fill="#63b8ff" stroke="#63b8ff" points="364.76,-211.48 375.35,-211.48 367.07,-204.88 364.76,-211.48"/>
</a>
</g>
</g>
<!-- Node5 -->
<g id="Node000005" class="node">
<title>Node5</title>
<g id="a_Node000005"><a xlink:href="classapp_1_1MainWindow.html#ac5389eaf5a282ec021950e4a138238b1" target="_top" xlink:title=" ">
<polygon fill="white" stroke="#666666" points="501.5,-193 373.5,-193 373.5,-163 501.5,-163 501.5,-193"/>
<text text-anchor="start" x="381.5" y="-181" font-family="Helvetica,sans-Serif" font-size="10.00">app.MainWindow.mark</text>
<text text-anchor="middle" x="437.5" y="-170" font-family="Helvetica,sans-Serif" font-size="10.00">_dirty</text>
</a>
</g>
</g>
<!-- Node2&#45;&gt;Node5 -->
<g id="edge4_Node000002_Node000005" class="edge">
<title>Node2&#45;&gt;Node5</title>
<g id="a_edge4_Node000002_Node000005"><a xlink:title=" ">
<path fill="none" stroke="#63b8ff" d="M315.12,-149.56C330.62,-153.19 347.39,-157.12 363.36,-160.86"/>
<polygon fill="#63b8ff" stroke="#63b8ff" points="362.65,-164.29 373.19,-163.16 364.25,-157.47 362.65,-164.29"/>
</a>
</g>
</g>
<!-- Node13 -->
<g id="Node000013" class="node">
<title>Node13</title>
<g id="a_Node000013"><a xlink:href="classapp_1_1MainWindow.html#a843bb4b338321fc20a59b6f583419b16" target="_top" xlink:title=" ">
<polygon fill="white" stroke="#666666" points="889,-148 752,-148 752,-118 889,-118 889,-148"/>
<text text-anchor="start" x="760" y="-136" font-family="Helvetica,sans-Serif" font-size="10.00">app.MainWindow.update</text>
<text text-anchor="middle" x="820.5" y="-125" font-family="Helvetica,sans-Serif" font-size="10.00">_model_outline</text>
</a>
</g>
</g>
<!-- Node2&#45;&gt;Node13 -->
<g id="edge25_Node000002_Node000013" class="edge">
<title>Node2&#45;&gt;Node13</title>
<g id="a_edge25_Node000002_Node000013"><a xlink:title=" ">
<path fill="none" stroke="#63b8ff" d="M315.25,-134.78C419.31,-134.41 628.37,-133.67 741.88,-133.27"/>
<polygon fill="#63b8ff" stroke="#63b8ff" points="741.9,-136.77 751.89,-133.24 741.88,-129.77 741.9,-136.77"/>
</a>
</g>
</g>
<!-- Node21 -->
<g id="Node000021" class="node">
<title>Node21</title>
<g id="a_Node000021"><a xlink:href="classapp_1_1MainWindow.html#aff0997f58cd4c0aac3d1481e9a3e44b3" target="_top" xlink:title=" ">
<polygon fill="white" stroke="#666666" points="524,-107 351,-107 351,-77 524,-77 524,-107"/>
<text text-anchor="start" x="359" y="-95" font-family="Helvetica,sans-Serif" font-size="10.00">app.MainWindow.update</text>
<text text-anchor="middle" x="437.5" y="-84" font-family="Helvetica,sans-Serif" font-size="10.00">_composite_template_tab_label</text>
</a>
</g>
</g>
<!-- Node2&#45;&gt;Node21 -->
<g id="edge24_Node000002_Node000021" class="edge">
<title>Node2&#45;&gt;Node21</title>
<g id="a_edge24_Node000002_Node000021"><a xlink:title=" ">
<path fill="none" stroke="#63b8ff" d="M315.12,-120.44C330.22,-116.9 346.52,-113.09 362.12,-109.43"/>
<polygon fill="#63b8ff" stroke="#63b8ff" points="363.31,-112.75 372.25,-107.06 361.71,-105.93 363.31,-112.75"/>
</a>
</g>
</g>
<!-- Node22 -->
<g id="Node000022" class="node">
<title>Node22</title>
<g id="a_Node000022"><a xlink:href="classapp_1_1MainWindow.html#a2ec6c516c5a845500e7c0d1e012ee9ef" target="_top" xlink:title=" ">
<polygon fill="white" stroke="#666666" points="513,-58.5 362,-58.5 362,-17.5 513,-17.5 513,-58.5"/>
<text text-anchor="start" x="370" y="-46.5" font-family="Helvetica,sans-Serif" font-size="10.00">app.MainWindow.update</text>
<text text-anchor="start" x="370" y="-35.5" font-family="Helvetica,sans-Serif" font-size="10.00">_save_composite_template</text>
<text text-anchor="middle" x="437.5" y="-24.5" font-family="Helvetica,sans-Serif" font-size="10.00">_action_state</text>
</a>
</g>
</g>
<!-- Node2&#45;&gt;Node22 -->
<g id="edge26_Node000002_Node000022" class="edge">
<title>Node2&#45;&gt;Node22</title>
<g id="a_edge26_Node000002_Node000022"><a xlink:title=" ">
<path fill="none" stroke="#63b8ff" d="M279.27,-114.22C298.36,-99.85 325.26,-81.03 351,-68 354.71,-66.12 358.57,-64.31 362.5,-62.58"/>
<polygon fill="#63b8ff" stroke="#63b8ff" points="363.92,-65.77 371.78,-58.66 361.2,-59.32 363.92,-65.77"/>
</a>
</g>
</g>
<!-- Node4 -->
<g id="Node000004" class="node">
<title>Node4</title>
<g id="a_Node000004"><a xlink:href="classapp_1_1MainWindow.html#a2472469495b0ad528b8f9b01864e7376" target="_top" xlink:title=" ">
<polygon fill="white" stroke="#666666" points="703,-241 573,-241 573,-211 703,-211 703,-241"/>
<text text-anchor="start" x="581" y="-229" font-family="Helvetica,sans-Serif" font-size="10.00">app.MainWindow.apply</text>
<text text-anchor="middle" x="638" y="-218" font-family="Helvetica,sans-Serif" font-size="10.00">_project_settings_to_ui</text>
</a>
</g>
</g>
<!-- Node3&#45;&gt;Node4 -->
<g id="edge3_Node000003_Node000004" class="edge">
<title>Node3&#45;&gt;Node4</title>
<g id="a_edge3_Node000003_Node000004"><a xlink:title=" ">
<path fill="none" stroke="#63b8ff" d="M499.68,-226C519.65,-226 542.04,-226 562.86,-226"/>
<polygon fill="#63b8ff" stroke="#63b8ff" points="562.93,-229.5 572.93,-226 562.93,-222.5 562.93,-229.5"/>
</a>
</g>
</g>
<!-- Node6 -->
<g id="Node000006" class="node">
<title>Node6</title>
<g id="a_Node000006"><a xlink:href="classapp_1_1MainWindow.html#aec811a7d1575e60a52085248bdb7bc16" target="_top" xlink:title=" ">
<polygon fill="white" stroke="#666666" points="713.5,-193 562.5,-193 562.5,-163 713.5,-163 713.5,-193"/>
<text text-anchor="start" x="570.5" y="-181" font-family="Helvetica,sans-Serif" font-size="10.00">app.MainWindow.on_model</text>
<text text-anchor="middle" x="638" y="-170" font-family="Helvetica,sans-Serif" font-size="10.00">_changed</text>
</a>
</g>
</g>
<!-- Node5&#45;&gt;Node6 -->
<g id="edge5_Node000005_Node000006" class="edge">
<title>Node5&#45;&gt;Node6</title>
<g id="a_edge5_Node000005_Node000006"><a xlink:title=" ">
<path fill="none" stroke="#63b8ff" d="M501.58,-178C517.56,-178 534.99,-178 551.87,-178"/>
<polygon fill="#63b8ff" stroke="#63b8ff" points="552.29,-181.5 562.29,-178 552.29,-174.5 552.29,-181.5"/>
</a>
</g>
</g>
<!-- Node7 -->
<g id="Node000007" class="node">
<title>Node7</title>
<g id="a_Node000007"><a xlink:href="classapp_1_1MainWindow.html#acafece51f4704ec87848bd7c8917f004" target="_top" xlink:title=" ">
<polygon fill="white" stroke="#666666" points="887.5,-299 753.5,-299 753.5,-269 887.5,-269 887.5,-299"/>
<text text-anchor="start" x="761.5" y="-287" font-family="Helvetica,sans-Serif" font-size="10.00">app.MainWindow.record</text>
<text text-anchor="middle" x="820.5" y="-276" font-family="Helvetica,sans-Serif" font-size="10.00">_history_snapshot</text>
</a>
</g>
</g>
<!-- Node6&#45;&gt;Node7 -->
<g id="edge6_Node000006_Node000007" class="edge">
<title>Node6&#45;&gt;Node7</title>
<g id="a_edge6_Node000006_Node000007"><a xlink:title=" ">
<path fill="none" stroke="#63b8ff" d="M695.9,-193.1C702.83,-195.7 709.69,-198.66 716,-202 746.6,-218.17 777.1,-243.78 796.98,-262.08"/>
<polygon fill="#63b8ff" stroke="#63b8ff" points="794.62,-264.66 804.31,-268.94 799.4,-259.55 794.62,-264.66"/>
</a>
</g>
</g>
<!-- Node12 -->
<g id="Node000012" class="node">
<title>Node12</title>
<g id="a_Node000012"><a xlink:href="classapp_1_1MainWindow.html#aedbf6bebed20fc0f6f6a1800b4582a0e" target="_top" xlink:title=" ">
<polygon fill="white" stroke="#666666" points="879.5,-196 761.5,-196 761.5,-166 879.5,-166 879.5,-196"/>
<text text-anchor="start" x="769.5" y="-184" font-family="Helvetica,sans-Serif" font-size="10.00">app.MainWindow.set</text>
<text text-anchor="middle" x="820.5" y="-173" font-family="Helvetica,sans-Serif" font-size="10.00">_dirty</text>
</a>
</g>
</g>
<!-- Node6&#45;&gt;Node12 -->
<g id="edge12_Node000006_Node000012" class="edge">
<title>Node6&#45;&gt;Node12</title>
<g id="a_edge12_Node000006_Node000012"><a xlink:title=" ">
<path fill="none" stroke="#63b8ff" d="M713.72,-179.24C726.15,-179.45 738.98,-179.66 751.23,-179.87"/>
<polygon fill="#63b8ff" stroke="#63b8ff" points="751.31,-183.37 761.37,-180.03 751.43,-176.37 751.31,-183.37"/>
</a>
</g>
</g>
<!-- Node6&#45;&gt;Node13 -->
<g id="edge13_Node000006_Node000013" class="edge">
<title>Node6&#45;&gt;Node13</title>
<g id="a_edge13_Node000006_Node000013"><a xlink:title=" ">
<path fill="none" stroke="#63b8ff" d="M699.35,-162.95C715.31,-158.98 732.67,-154.65 749.11,-150.55"/>
<polygon fill="#63b8ff" stroke="#63b8ff" points="750.35,-153.85 759.2,-148.03 748.65,-147.06 750.35,-153.85"/>
</a>
</g>
</g>
<!-- Node8 -->
<g id="Node000008" class="node">
<title>Node8</title>
<g id="a_Node000008"><a xlink:href="classapp_1_1MainWindow.html#a73669adf7b4a31d4df82e0d46bb9f256" target="_top" xlink:title=" ">
<polygon fill="white" stroke="#666666" points="1081,-364 944,-364 944,-334 1081,-334 1081,-364"/>
<text text-anchor="start" x="952" y="-352" font-family="Helvetica,sans-Serif" font-size="10.00">app.MainWindow.history</text>
<text text-anchor="middle" x="1012.5" y="-341" font-family="Helvetica,sans-Serif" font-size="10.00">_signature</text>
</a>
</g>
</g>
<!-- Node7&#45;&gt;Node8 -->
<g id="edge7_Node000007_Node000008" class="edge">
<title>Node7&#45;&gt;Node8</title>
<g id="a_edge7_Node000007_Node000008"><a xlink:title=" ">
<path fill="none" stroke="#63b8ff" d="M864.52,-299.08C883.1,-305.57 905.11,-313.21 925,-320 935.21,-323.49 946.12,-327.17 956.62,-330.71"/>
<polygon fill="#63b8ff" stroke="#63b8ff" points="955.53,-334.03 966.13,-333.89 957.76,-327.39 955.53,-334.03"/>
</a>
</g>
</g>
<!-- Node9 -->
<g id="Node000009" class="node">
<title>Node9</title>
<g id="a_Node000009"><a xlink:href="classapp_1_1MainWindow.html#abd8aecf565d1beb5a13c50fbeff15ff2" target="_top" xlink:title=" ">
<polygon fill="white" stroke="#666666" points="1273,-342 1136,-342 1136,-312 1273,-312 1273,-342"/>
<text text-anchor="start" x="1144" y="-330" font-family="Helvetica,sans-Serif" font-size="10.00">app.MainWindow.history</text>
<text text-anchor="middle" x="1204.5" y="-319" font-family="Helvetica,sans-Serif" font-size="10.00">_snapshot</text>
</a>
</g>
</g>
<!-- Node7&#45;&gt;Node9 -->
<g id="edge10_Node000007_Node000009" class="edge">
<title>Node7&#45;&gt;Node9</title>
<g id="a_edge10_Node000007_Node000009"><a xlink:title=" ">
<path fill="none" stroke="#63b8ff" d="M887.6,-291.44C953.85,-298.9 1055.8,-310.37 1125.86,-318.26"/>
<polygon fill="#63b8ff" stroke="#63b8ff" points="1125.63,-321.76 1135.96,-319.4 1126.41,-314.8 1125.63,-321.76"/>
</a>
</g>
</g>
<!-- Node11 -->
<g id="Node000011" class="node">
<title>Node11</title>
<g id="a_Node000011"><a xlink:href="classapp_1_1MainWindow.html#a47bf702c447984e842e5beef0e810e3f" target="_top" xlink:title=" ">
<polygon fill="white" stroke="#666666" points="1081,-278 944,-278 944,-248 1081,-248 1081,-278"/>
<text text-anchor="start" x="952" y="-266" font-family="Helvetica,sans-Serif" font-size="10.00">app.MainWindow.update</text>
<text text-anchor="middle" x="1012.5" y="-255" font-family="Helvetica,sans-Serif" font-size="10.00">_undo_redo_actions</text>
</a>
</g>
</g>
<!-- Node7&#45;&gt;Node11 -->
<g id="edge11_Node000007_Node000011" class="edge">
<title>Node7&#45;&gt;Node11</title>
<g id="a_edge11_Node000007_Node000011"><a xlink:title=" ">
<path fill="none" stroke="#63b8ff" d="M887.69,-276.68C902.62,-275.03 918.61,-273.27 933.96,-271.57"/>
<polygon fill="#63b8ff" stroke="#63b8ff" points="934.39,-275.04 943.94,-270.47 933.62,-268.09 934.39,-275.04"/>
</a>
</g>
</g>
<!-- Node8&#45;&gt;Node9 -->
<g id="edge8_Node000008_Node000009" class="edge">
<title>Node8&#45;&gt;Node9</title>
<g id="a_edge8_Node000008_Node000009"><a xlink:title=" ">
<path fill="none" stroke="#63b8ff" d="M1081.02,-341.18C1095.49,-339.51 1110.9,-337.72 1125.72,-336.01"/>
<polygon fill="#63b8ff" stroke="#63b8ff" points="1126.34,-339.46 1135.88,-334.83 1125.54,-332.5 1126.34,-339.46"/>
</a>
</g>
</g>
<!-- Node10 -->
<g id="Node000010" class="node">
<title>Node10</title>
<g id="a_Node000010"><a xlink:href="classapp_1_1MainWindow.html#a77b7037e02d6b1e5d7d13cece4f94cbf" target="_top" xlink:title=" ">
<polygon fill="white" stroke="#666666" points="1469,-336.5 1309,-336.5 1309,-317.5 1469,-317.5 1469,-336.5"/>
<text text-anchor="middle" x="1389" y="-324.5" font-family="Helvetica,sans-Serif" font-size="10.00">app.MainWindow.project_dict</text>
</a>
</g>
</g>
<!-- Node9&#45;&gt;Node10 -->
<g id="edge9_Node000009_Node000010" class="edge">
<title>Node9&#45;&gt;Node10</title>
<g id="a_edge9_Node000009_Node000010"><a xlink:title=" ">
<path fill="none" stroke="#63b8ff" d="M1273.2,-327C1281.51,-327 1290.1,-327 1298.67,-327"/>
<polygon fill="#63b8ff" stroke="#63b8ff" points="1298.7,-330.5 1308.7,-327 1298.7,-323.5 1298.7,-330.5"/>
</a>
</g>
</g>
<!-- Node14 -->
<g id="Node000014" class="node">
<title>Node14</title>
<g id="a_Node000014"><a xlink:href="classapp_1_1MainWindow.html#a484f07fe9298fb9460e26498176fba18" target="_top" xlink:title=" ">
<polygon fill="white" stroke="#666666" points="1271,-78 1138,-78 1138,-48 1271,-48 1271,-78"/>
<text text-anchor="start" x="1146" y="-66" font-family="Helvetica,sans-Serif" font-size="10.00">app.MainWindow.active</text>
<text text-anchor="middle" x="1204.5" y="-55" font-family="Helvetica,sans-Serif" font-size="10.00">_model_scene</text>
</a>
</g>
</g>
<!-- Node13&#45;&gt;Node14 -->
<g id="edge14_Node000013_Node000014" class="edge">
<title>Node13&#45;&gt;Node14</title>
<g id="a_edge14_Node000013_Node000014"><a xlink:title=" ">
<path fill="none" stroke="#63b8ff" d="M889.03,-144.83C946.52,-152.26 1030.56,-156.78 1100,-135 1131.21,-125.21 1161.24,-102.32 1180.84,-84.96"/>
<polygon fill="#63b8ff" stroke="#63b8ff" points="1183.29,-87.47 1188.33,-78.15 1178.58,-82.29 1183.29,-87.47"/>
</a>
</g>
</g>
<!-- Node16 -->
<g id="Node000016" class="node">
<title>Node16</title>
<g id="a_Node000016"><a xlink:href="classapp_1_1MainWindow.html#a540c50b331cd5b6676e01d5971ff4171" target="_top" xlink:title=" ">
<polygon fill="white" stroke="#666666" points="1073,-212 952,-212 952,-182 1073,-182 1073,-212"/>
<text text-anchor="start" x="960" y="-200" font-family="Helvetica,sans-Serif" font-size="10.00">app.MainWindow.add</text>
<text text-anchor="middle" x="1012.5" y="-189" font-family="Helvetica,sans-Serif" font-size="10.00">_outline_node_item</text>
</a>
</g>
</g>
<!-- Node13&#45;&gt;Node16 -->
<g id="edge16_Node000013_Node000016" class="edge">
<title>Node13&#45;&gt;Node16</title>
<g id="a_edge16_Node000013_Node000016"><a xlink:title=" ">
<path fill="none" stroke="#63b8ff" d="M865.81,-148.01C884.13,-154.21 905.59,-161.46 925,-168 935.34,-171.48 946.39,-175.19 957,-178.75"/>
<polygon fill="#63b8ff" stroke="#63b8ff" points="956,-182.11 966.6,-181.97 958.23,-175.47 956,-182.11"/>
</a>
</g>
</g>
<!-- Node18 -->
<g id="Node000018" class="node">
<title>Node18</title>
<g id="a_Node000018"><a xlink:href="classapp_1_1MainWindow.html#aa74a96f059f2380881eafb8b9a2fdb7c" target="_top" xlink:title=" ">
<polygon fill="white" stroke="#666666" points="1081,-126 944,-126 944,-96 1081,-96 1081,-126"/>
<text text-anchor="start" x="952" y="-114" font-family="Helvetica,sans-Serif" font-size="10.00">app.MainWindow.model</text>
<text text-anchor="middle" x="1012.5" y="-103" font-family="Helvetica,sans-Serif" font-size="10.00">_outline_group_for_node</text>
</a>
</g>
</g>
<!-- Node13&#45;&gt;Node18 -->
<g id="edge19_Node000013_Node000018" class="edge">
<title>Node13&#45;&gt;Node18</title>
<g id="a_edge19_Node000013_Node000018"><a xlink:title=" ">
<path fill="none" stroke="#63b8ff" d="M889.02,-125.18C903.49,-123.51 918.9,-121.72 933.72,-120.01"/>
<polygon fill="#63b8ff" stroke="#63b8ff" points="934.34,-123.46 943.88,-118.83 933.54,-116.5 934.34,-123.46"/>
</a>
</g>
</g>
<!-- Node19 -->
<g id="Node000019" class="node">
<title>Node19</title>
<g id="a_Node000019"><a xlink:href="classapp_1_1MainWindow.html#a725686798ef6221f1e32c04c51a07502" target="_top" xlink:title=" ">
<polygon fill="white" stroke="#666666" points="1076,-78 949,-78 949,-48 1076,-48 1076,-78"/>
<text text-anchor="start" x="957" y="-66" font-family="Helvetica,sans-Serif" font-size="10.00">app.MainWindow.node</text>
<text text-anchor="middle" x="1012.5" y="-55" font-family="Helvetica,sans-Serif" font-size="10.00">_by_id</text>
</a>
</g>
</g>
<!-- Node13&#45;&gt;Node19 -->
<g id="edge20_Node000013_Node000019" class="edge">
<title>Node13&#45;&gt;Node19</title>
<g id="a_edge20_Node000013_Node000019"><a xlink:title=" ">
<path fill="none" stroke="#63b8ff" d="M852.26,-117.89C872.6,-108.27 900.01,-95.96 925,-87 930.78,-84.93 936.82,-82.93 942.92,-81.02"/>
<polygon fill="#63b8ff" stroke="#63b8ff" points="943.95,-84.36 952.51,-78.11 941.92,-77.67 943.95,-84.36"/>
</a>
</g>
</g>
<!-- Node20 -->
<g id="Node000020" class="node">
<title>Node20</title>
<g id="a_Node000020"><a xlink:href="classapp_1_1MainWindow.html#a223fd97ffe88e1c7f4ef7a16ae6dbbaf" target="_top" xlink:title=" ">
<polygon fill="white" stroke="#666666" points="1100,-30 925,-30 925,0 1100,0 1100,-30"/>
<text text-anchor="start" x="933" y="-18" font-family="Helvetica,sans-Serif" font-size="10.00">app.MainWindow.subcomponent</text>
<text text-anchor="middle" x="1012.5" y="-7" font-family="Helvetica,sans-Serif" font-size="10.00">_attachment_maps</text>
</a>
</g>
</g>
<!-- Node13&#45;&gt;Node20 -->
<g id="edge22_Node000013_Node000020" class="edge">
<title>Node13&#45;&gt;Node20</title>
<g id="a_edge22_Node000013_Node000020"><a xlink:title=" ">
<path fill="none" stroke="#63b8ff" d="M833.93,-117.95C851.91,-97.16 887.17,-59.87 925,-39 928.26,-37.2 931.67,-35.53 935.17,-33.97"/>
<polygon fill="#63b8ff" stroke="#63b8ff" points="936.65,-37.15 944.59,-30.13 934.01,-30.67 936.65,-37.15"/>
</a>
</g>
</g>
<!-- Node15 -->
<g id="Node000015" class="node">
<title>Node15</title>
<g id="a_Node000015"><a xlink:href="classapp_1_1MainWindow.html#a85fab24fdc5fa950e46c5f92a7bf50be" target="_top" xlink:title=" ">
<polygon fill="white" stroke="#666666" points="1455.5,-78 1322.5,-78 1322.5,-48 1455.5,-48 1455.5,-78"/>
<text text-anchor="start" x="1330.5" y="-66" font-family="Helvetica,sans-Serif" font-size="10.00">app.MainWindow.active</text>
<text text-anchor="middle" x="1389" y="-55" font-family="Helvetica,sans-Serif" font-size="10.00">_model_editor_widget</text>
</a>
</g>
</g>
<!-- Node14&#45;&gt;Node15 -->
<g id="edge15_Node000014_Node000015" class="edge">
<title>Node14&#45;&gt;Node15</title>
<g id="a_edge15_Node000014_Node000015"><a xlink:title=" ">
<path fill="none" stroke="#63b8ff" d="M1271.13,-63C1284.4,-63 1298.46,-63 1312.06,-63"/>
<polygon fill="#63b8ff" stroke="#63b8ff" points="1312.34,-66.5 1322.34,-63 1312.34,-59.5 1312.34,-66.5"/>
</a>
</g>
</g>
<!-- Node16&#45;&gt;Node16 -->
<g id="edge17_Node000016_Node000016" class="edge">
<title>Node16&#45;&gt;Node16</title>
<g id="a_edge17_Node000016_Node000016"><a xlink:title=" ">
<path fill="none" stroke="#63b8ff" d="M978.75,-212.28C971.25,-221.41 982.5,-230 1012.5,-230 1030.31,-230 1041.51,-226.97 1046.11,-222.6"/>
<polygon fill="#63b8ff" stroke="#63b8ff" points="1049.61,-222.32 1046.25,-212.28 1042.61,-222.23 1049.61,-222.32"/>
</a>
</g>
</g>
<!-- Node17 -->
<g id="Node000017" class="node">
<title>Node17</title>
<g id="a_Node000017"><a xlink:href="classapp_1_1MainWindow.html#a81a2f9806ab8e227f6c896c452d290a8" target="_top" xlink:title=" ">
<polygon fill="white" stroke="#666666" points="1273,-212 1136,-212 1136,-182 1273,-182 1273,-212"/>
<text text-anchor="start" x="1144" y="-200" font-family="Helvetica,sans-Serif" font-size="10.00">app.MainWindow.outline</text>
<text text-anchor="middle" x="1204.5" y="-189" font-family="Helvetica,sans-Serif" font-size="10.00">_label_for_node</text>
</a>
</g>
</g>
<!-- Node16&#45;&gt;Node17 -->
<g id="edge18_Node000016_Node000017" class="edge">
<title>Node16&#45;&gt;Node17</title>
<g id="a_edge18_Node000016_Node000017"><a xlink:title=" ">
<path fill="none" stroke="#63b8ff" d="M1073.1,-197C1089.74,-197 1108.09,-197 1125.62,-197"/>
<polygon fill="#63b8ff" stroke="#63b8ff" points="1125.83,-200.5 1135.83,-197 1125.83,-193.5 1125.83,-200.5"/>
</a>
</g>
</g>
<!-- Node19&#45;&gt;Node14 -->
<g id="edge21_Node000019_Node000014" class="edge">
<title>Node19&#45;&gt;Node14</title>
<g id="a_edge21_Node000019_Node000014"><a xlink:title=" ">
<path fill="none" stroke="#63b8ff" d="M1076.24,-63C1092.62,-63 1110.45,-63 1127.44,-63"/>
<polygon fill="#63b8ff" stroke="#63b8ff" points="1127.89,-66.5 1137.89,-63 1127.89,-59.5 1127.89,-66.5"/>
</a>
</g>
</g>
<!-- Node20&#45;&gt;Node14 -->
<g id="edge23_Node000020_Node000014" class="edge">
<title>Node20&#45;&gt;Node14</title>
<g id="a_edge23_Node000020_Node000014"><a xlink:title=" ">
<path fill="none" stroke="#63b8ff" d="M1073.1,-30.06C1092.55,-34.97 1114.31,-40.47 1134.4,-45.54"/>
<polygon fill="#63b8ff" stroke="#63b8ff" points="1133.56,-48.94 1144.12,-48 1135.28,-42.15 1133.56,-48.94"/>
</a>
</g>
</g>
<!-- Node23 -->
<g id="Node000023" class="node">
<title>Node23</title>
<g id="a_Node000023"><a xlink:href="classapp_1_1MainWindow.html#ab74d7856f447a393d2d5a8e6ec6e5887" target="_top" xlink:title=" ">
<polygon fill="white" stroke="#666666" points="716,-58.5 560,-58.5 560,-17.5 716,-17.5 716,-58.5"/>
<text text-anchor="start" x="568" y="-46.5" font-family="Helvetica,sans-Serif" font-size="10.00">app.MainWindow.active</text>
<text text-anchor="start" x="568" y="-35.5" font-family="Helvetica,sans-Serif" font-size="10.00">_composite_template_editor</text>
<text text-anchor="middle" x="638" y="-24.5" font-family="Helvetica,sans-Serif" font-size="10.00">_widget</text>
</a>
</g>
</g>
<!-- Node22&#45;&gt;Node23 -->
<g id="edge27_Node000022_Node000023" class="edge">
<title>Node22&#45;&gt;Node23</title>
<g id="a_edge27_Node000022_Node000023"><a xlink:title=" ">
<path fill="none" stroke="#63b8ff" d="M513.26,-38C525.2,-38 537.63,-38 549.83,-38"/>
<polygon fill="#63b8ff" stroke="#63b8ff" points="549.99,-41.5 559.99,-38 549.99,-34.5 549.99,-41.5"/>
</a>
</g>
</g>
</g>
</svg>
