<?xml version="1.0" encoding="UTF-8" standalone="no"?>
<!DOCTYPE svg PUBLIC "-//W3C//DTD SVG 1.1//EN"
 "http://www.w3.org/Graphics/SVG/1.1/DTD/svg11.dtd">
<!-- Generated by graphviz version 2.43.0 (0)
 -->
<!-- Title: fuse.core.ui.model_scene.ModelScene.delete_subcomp_attachment_by_id Pages: 1 -->
<svg width="558pt" height="108pt"
 viewBox="0.00 0.00 558.00 108.00" xmlns="http://www.w3.org/2000/svg" xmlns:xlink="http://www.w3.org/1999/xlink">
<g id="graph0" class="graph" transform="scale(1 1) rotate(0) translate(4 104)">
<title>fuse.core.ui.model_scene.ModelScene.delete_subcomp_attachment_by_id</title>
<!-- Node1 -->
<g id="Node000001" class="node">
<title>Node1</title>
<g id="a_Node000001"><a xlink:title=" ">
<polygon fill="#999999" stroke="#666666" points="159,-70 0,-70 0,-29 159,-29 159,-70"/>
<text text-anchor="start" x="8" y="-58" font-family="Helvetica,sans-Serif" font-size="10.00">fuse.core.ui.model</text>
<text text-anchor="start" x="8" y="-47" font-family="Helvetica,sans-Serif" font-size="10.00">_scene.ModelScene.delete</text>
<text text-anchor="middle" x="79.5" y="-36" font-family="Helvetica,sans-Serif" font-size="10.00">_subcomp_attachment_by_id</text>
</a>
</g>
</g>
<!-- Node2 -->
<g id="Node000002" class="node">
<title>Node2</title>
<g id="a_Node000002"><a xlink:href="classfuse_1_1core_1_1ui_1_1model__scene_1_1ModelScene.html#a8313c9472705439cf7b9757767bec67c" target="_top" xlink:title=" ">
<polygon fill="white" stroke="#666666" points="347.5,-100 201.5,-100 201.5,-59 347.5,-59 347.5,-100"/>
<text text-anchor="start" x="209.5" y="-88" font-family="Helvetica,sans-Serif" font-size="10.00">fuse.core.ui.model</text>
<text text-anchor="start" x="209.5" y="-77" font-family="Helvetica,sans-Serif" font-size="10.00">_scene.ModelScene.delete</text>
<text text-anchor="middle" x="274.5" y="-66" font-family="Helvetica,sans-Serif" font-size="10.00">_subcomp_attachment</text>
</a>
</g>
</g>
<!-- Node1&#45;&gt;Node2 -->
<g id="edge1_Node000001_Node000002" class="edge">
<title>Node1&#45;&gt;Node2</title>
<g id="a_edge1_Node000001_Node000002"><a xlink:title=" ">
<path fill="none" stroke="#63b8ff" d="M159,-61.7C169.6,-63.35 180.5,-65.04 191.16,-66.7"/>
<polygon fill="#63b8ff" stroke="#63b8ff" points="190.87,-70.2 201.29,-68.28 191.95,-63.28 190.87,-70.2"/>
</a>
</g>
</g>
<!-- Node4 -->
<g id="Node000004" class="node">
<title>Node4</title>
<g id="a_Node000004"><a xlink:href="classfuse_1_1core_1_1ui_1_1model__scene_1_1ModelScene.html#ac5b277ebb1898c0e71e04e38cd8a5239" target="_top" xlink:title=" ">
<polygon fill="white" stroke="#666666" points="354,-41 195,-41 195,0 354,0 354,-41"/>
<text text-anchor="start" x="203" y="-29" font-family="Helvetica,sans-Serif" font-size="10.00">fuse.core.ui.model</text>
<text text-anchor="start" x="203" y="-18" font-family="Helvetica,sans-Serif" font-size="10.00">_scene.ModelScene.find</text>
<text text-anchor="middle" x="274.5" y="-7" font-family="Helvetica,sans-Serif" font-size="10.00">_subcomp_attachment_by_id</text>
</a>
</g>
</g>
<!-- Node1&#45;&gt;Node4 -->
<g id="edge3_Node000001_Node000004" class="edge">
<title>Node1&#45;&gt;Node4</title>
<g id="a_edge3_Node000001_Node000004"><a xlink:title=" ">
<path fill="none" stroke="#63b8ff" d="M159,-37.7C167.48,-36.43 176.14,-35.13 184.73,-33.84"/>
<polygon fill="#63b8ff" stroke="#63b8ff" points="185.39,-37.28 194.76,-32.33 184.35,-30.36 185.39,-37.28"/>
</a>
</g>
</g>
<!-- Node3 -->
<g id="Node000003" class="node">
<title>Node3</title>
<g id="a_Node000003"><a xlink:href="classfuse_1_1core_1_1ui_1_1model__scene_1_1ModelScene.html#a632ff0aa56e529f8eafcd06e2299db21" target="_top" xlink:title=" ">
<polygon fill="white" stroke="#666666" points="541.5,-100 398.5,-100 398.5,-59 541.5,-59 541.5,-100"/>
<text text-anchor="start" x="406.5" y="-88" font-family="Helvetica,sans-Serif" font-size="10.00">fuse.core.ui.model</text>
<text text-anchor="start" x="406.5" y="-77" font-family="Helvetica,sans-Serif" font-size="10.00">_scene.ModelScene.notify</text>
<text text-anchor="middle" x="470" y="-66" font-family="Helvetica,sans-Serif" font-size="10.00">_model_changed</text>
</a>
</g>
</g>
<!-- Node2&#45;&gt;Node3 -->
<g id="edge2_Node000002_Node000003" class="edge">
<title>Node2&#45;&gt;Node3</title>
<g id="a_edge2_Node000002_Node000003"><a xlink:title=" ">
<path fill="none" stroke="#63b8ff" d="M347.55,-79.5C360.82,-79.5 374.76,-79.5 388.27,-79.5"/>
<polygon fill="#63b8ff" stroke="#63b8ff" points="388.5,-83 398.5,-79.5 388.5,-76 388.5,-83"/>
</a>
</g>
</g>
<!-- Node5 -->
<g id="Node000005" class="node">
<title>Node5</title>
<g id="a_Node000005"><a xlink:href="classfuse_1_1core_1_1ui_1_1model__scene_1_1ModelScene.html#ada66a7ab17afa9dfde525bc60429aeac" target="_top" xlink:title=" ">
<polygon fill="white" stroke="#666666" points="550,-41 390,-41 390,0 550,0 550,-41"/>
<text text-anchor="start" x="398" y="-29" font-family="Helvetica,sans-Serif" font-size="10.00">fuse.core.ui.model</text>
<text text-anchor="start" x="398" y="-18" font-family="Helvetica,sans-Serif" font-size="10.00">_scene.ModelScene.subcomp</text>
<text text-anchor="middle" x="470" y="-7" font-family="Helvetica,sans-Serif" font-size="10.00">_attachment_items</text>
</a>
</g>
</g>
<!-- Node4&#45;&gt;Node5 -->
<g id="edge4_Node000004_Node000005" class="edge">
<title>Node4&#45;&gt;Node5</title>
<g id="a_edge4_Node000004_Node000005"><a xlink:title=" ">
<path fill="none" stroke="#63b8ff" d="M354.2,-20.5C362.54,-20.5 371.05,-20.5 379.49,-20.5"/>
<polygon fill="#63b8ff" stroke="#63b8ff" points="379.74,-24 389.74,-20.5 379.74,-17 379.74,-24"/>
</a>
</g>
</g>
</g>
</svg>
