<?xml version="1.0" encoding="UTF-8" standalone="no"?>
<!DOCTYPE svg PUBLIC "-//W3C//DTD SVG 1.1//EN"
 "http://www.w3.org/Graphics/SVG/1.1/DTD/svg11.dtd">
<!-- Generated by graphviz version 2.43.0 (0)
 -->
<!-- Title: fuse.plugins.community.sst.external_validation.runner.successful_stage_result Pages: 1 -->
<svg width="671pt" height="334pt"
 viewBox="0.00 0.00 671.00 334.00" xmlns="http://www.w3.org/2000/svg" xmlns:xlink="http://www.w3.org/1999/xlink">
<g id="graph0" class="graph" transform="scale(1 1) rotate(0) translate(4 330)">
<title>fuse.plugins.community.sst.external_validation.runner.successful_stage_result</title>
<!-- Node1 -->
<g id="Node000001" class="node">
<title>Node1</title>
<g id="a_Node000001"><a xlink:title=" ">
<polygon fill="#999999" stroke="#666666" points="663,-188 469,-188 469,-147 663,-147 663,-188"/>
<text text-anchor="start" x="477" y="-176" font-family="Helvetica,sans-Serif" font-size="10.00">fuse.plugins.community.sst.external</text>
<text text-anchor="start" x="477" y="-165" font-family="Helvetica,sans-Serif" font-size="10.00">_validation.runner.successful</text>
<text text-anchor="middle" x="566" y="-154" font-family="Helvetica,sans-Serif" font-size="10.00">_stage_result</text>
</a>
</g>
</g>
<!-- Node2 -->
<g id="Node000002" class="node">
<title>Node2</title>
<g id="a_Node000002"><a xlink:href="namespacefuse_1_1plugins_1_1community_1_1sst_1_1external__validation_1_1runner.html#a8ca730a61bd19f9cd4c31475c64b285f" target="_top" xlink:title=" ">
<polygon fill="white" stroke="#666666" points="428.5,-277 234.5,-277 234.5,-236 428.5,-236 428.5,-277"/>
<text text-anchor="start" x="242.5" y="-265" font-family="Helvetica,sans-Serif" font-size="10.00">fuse.plugins.community.sst.external</text>
<text text-anchor="start" x="242.5" y="-254" font-family="Helvetica,sans-Serif" font-size="10.00">_validation.runner.run_expected</text>
<text text-anchor="middle" x="331.5" y="-243" font-family="Helvetica,sans-Serif" font-size="10.00">_output_file_check</text>
</a>
</g>
</g>
<!-- Node1&#45;&gt;Node2 -->
<g id="edge1_Node000001_Node000002" class="edge">
<title>Node1&#45;&gt;Node2</title>
<g id="a_edge1_Node000001_Node000002"><a xlink:title=" ">
<path fill="none" stroke="#63b8ff" d="M513.46,-192.41C489.33,-203.59 460.01,-216.48 433,-226.5 424.12,-229.79 414.7,-232.99 405.33,-235.98"/>
<polygon fill="#63b8ff" stroke="#63b8ff" points="515.2,-195.46 522.78,-188.06 512.24,-189.12 515.2,-195.46"/>
</a>
</g>
</g>
<!-- Node3 -->
<g id="Node000003" class="node">
<title>Node3</title>
<g id="a_Node000003"><a xlink:href="namespacefuse_1_1plugins_1_1community_1_1sst_1_1external__validation_1_1runner.html#a56bcd57f32404a304b353dced0c8fad8" target="_top" xlink:title=" ">
<polygon fill="white" stroke="#666666" points="194,-326 0,-326 0,-285 194,-285 194,-326"/>
<text text-anchor="start" x="8" y="-314" font-family="Helvetica,sans-Serif" font-size="10.00">fuse.plugins.community.sst.external</text>
<text text-anchor="start" x="8" y="-303" font-family="Helvetica,sans-Serif" font-size="10.00">_validation.runner.run_generated</text>
<text text-anchor="middle" x="97" y="-292" font-family="Helvetica,sans-Serif" font-size="10.00">_fixture_acceptance</text>
</a>
</g>
</g>
<!-- Node1&#45;&gt;Node3 -->
<g id="edge4_Node000001_Node000003" class="edge">
<title>Node1&#45;&gt;Node3</title>
<g id="a_edge4_Node000001_Node000003"><a xlink:title=" ">
<path fill="none" stroke="#63b8ff" d="M543.34,-196.06C519.74,-224.71 479.13,-267.26 433,-286.5 357.19,-318.12 263.27,-320.67 194.18,-316.58"/>
<polygon fill="#63b8ff" stroke="#63b8ff" points="546.27,-198 549.82,-188.02 540.82,-193.61 546.27,-198"/>
</a>
</g>
</g>
<!-- Node5 -->
<g id="Node000005" class="node">
<title>Node5</title>
<g id="a_Node000005"><a xlink:href="namespacefuse_1_1plugins_1_1community_1_1sst_1_1external__validation_1_1runner.html#a698986ef06bdfd868c9ead07f048acd3" target="_top" xlink:title=" ">
<polygon fill="white" stroke="#666666" points="428.5,-218 234.5,-218 234.5,-177 428.5,-177 428.5,-218"/>
<text text-anchor="start" x="242.5" y="-206" font-family="Helvetica,sans-Serif" font-size="10.00">fuse.plugins.community.sst.external</text>
<text text-anchor="start" x="242.5" y="-195" font-family="Helvetica,sans-Serif" font-size="10.00">_validation.runner.run_metadata</text>
<text text-anchor="middle" x="331.5" y="-184" font-family="Helvetica,sans-Serif" font-size="10.00">_validation_check</text>
</a>
</g>
</g>
<!-- Node1&#45;&gt;Node5 -->
<g id="edge5_Node000001_Node000005" class="edge">
<title>Node1&#45;&gt;Node5</title>
<g id="a_edge5_Node000001_Node000005"><a xlink:title=" ">
<path fill="none" stroke="#63b8ff" d="M458.77,-181.21C448.74,-182.5 438.6,-183.81 428.67,-185.09"/>
<polygon fill="#63b8ff" stroke="#63b8ff" points="459.29,-184.67 468.76,-179.92 458.39,-177.73 459.29,-184.67"/>
</a>
</g>
</g>
<!-- Node6 -->
<g id="Node000006" class="node">
<title>Node6</title>
<g id="a_Node000006"><a xlink:href="namespacefuse_1_1plugins_1_1community_1_1sst_1_1external__validation_1_1runner.html#ad35685fb5e581ddeef553df65ac24f0f" target="_top" xlink:title=" ">
<polygon fill="white" stroke="#666666" points="433,-159 230,-159 230,-118 433,-118 433,-159"/>
<text text-anchor="start" x="238" y="-147" font-family="Helvetica,sans-Serif" font-size="10.00">fuse.plugins.community.sst.external</text>
<text text-anchor="start" x="238" y="-136" font-family="Helvetica,sans-Serif" font-size="10.00">_validation.runner.run_sst_component</text>
<text text-anchor="middle" x="331.5" y="-125" font-family="Helvetica,sans-Serif" font-size="10.00">_availability_check</text>
</a>
</g>
</g>
<!-- Node1&#45;&gt;Node6 -->
<g id="edge6_Node000001_Node000006" class="edge">
<title>Node1&#45;&gt;Node6</title>
<g id="a_edge6_Node000001_Node000006"><a xlink:title=" ">
<path fill="none" stroke="#63b8ff" d="M458.79,-154.25C450.27,-153.19 441.67,-152.12 433.18,-151.06"/>
<polygon fill="#63b8ff" stroke="#63b8ff" points="458.4,-157.73 468.76,-155.5 459.27,-150.78 458.4,-157.73"/>
</a>
</g>
</g>
<!-- Node7 -->
<g id="Node000007" class="node">
<title>Node7</title>
<g id="a_Node000007"><a xlink:href="namespacefuse_1_1plugins_1_1community_1_1sst_1_1external__validation_1_1runner.html#af68dcf27c9b15610f91a3001af5bfbfd" target="_top" xlink:title=" ">
<polygon fill="white" stroke="#666666" points="428.5,-100 234.5,-100 234.5,-59 428.5,-59 428.5,-100"/>
<text text-anchor="start" x="242.5" y="-88" font-family="Helvetica,sans-Serif" font-size="10.00">fuse.plugins.community.sst.external</text>
<text text-anchor="start" x="242.5" y="-77" font-family="Helvetica,sans-Serif" font-size="10.00">_validation.runner.run_sst_element</text>
<text text-anchor="middle" x="331.5" y="-66" font-family="Helvetica,sans-Serif" font-size="10.00">_availability_check</text>
</a>
</g>
</g>
<!-- Node1&#45;&gt;Node7 -->
<g id="edge7_Node000001_Node000007" class="edge">
<title>Node1&#45;&gt;Node7</title>
<g id="a_edge7_Node000001_Node000007"><a xlink:title=" ">
<path fill="none" stroke="#63b8ff" d="M513.78,-142.61C489.61,-131.38 460.16,-118.43 433,-108.5 424.98,-105.57 416.52,-102.74 408.05,-100.06"/>
<polygon fill="#63b8ff" stroke="#63b8ff" points="512.57,-145.9 523.11,-146.98 515.54,-139.57 512.57,-145.9"/>
</a>
</g>
</g>
<!-- Node8 -->
<g id="Node000008" class="node">
<title>Node8</title>
<g id="a_Node000008"><a xlink:href="namespacefuse_1_1plugins_1_1community_1_1sst_1_1external__validation_1_1runner.html#a61b5462d2b8566f1f1f44778b4ee700d" target="_top" xlink:title=" ">
<polygon fill="white" stroke="#666666" points="428.5,-41 234.5,-41 234.5,0 428.5,0 428.5,-41"/>
<text text-anchor="start" x="242.5" y="-29" font-family="Helvetica,sans-Serif" font-size="10.00">fuse.plugins.community.sst.external</text>
<text text-anchor="start" x="242.5" y="-18" font-family="Helvetica,sans-Serif" font-size="10.00">_validation.runner.validate</text>
<text text-anchor="middle" x="331.5" y="-7" font-family="Helvetica,sans-Serif" font-size="10.00">_external_suite_root</text>
</a>
</g>
</g>
<!-- Node1&#45;&gt;Node8 -->
<g id="edge8_Node000001_Node000008" class="edge">
<title>Node1&#45;&gt;Node8</title>
<g id="a_edge8_Node000001_Node000008"><a xlink:title=" ">
<path fill="none" stroke="#63b8ff" d="M540.63,-139.38C516.01,-112.63 475.6,-73.06 433,-49.5 427.36,-46.38 421.35,-43.57 415.18,-41.04"/>
<polygon fill="#63b8ff" stroke="#63b8ff" points="538.14,-141.85 547.45,-146.9 543.33,-137.14 538.14,-141.85"/>
</a>
</g>
</g>
<!-- Node2&#45;&gt;Node3 -->
<g id="edge2_Node000002_Node000003" class="edge">
<title>Node2&#45;&gt;Node3</title>
<g id="a_edge2_Node000002_Node000003"><a xlink:title=" ">
<path fill="none" stroke="#63b8ff" d="M224.27,-278.89C214.24,-281 204.1,-283.14 194.17,-285.23"/>
<polygon fill="#63b8ff" stroke="#63b8ff" points="225.19,-282.27 234.26,-276.78 223.75,-275.42 225.19,-282.27"/>
</a>
</g>
</g>
<!-- Node4 -->
<g id="Node000004" class="node">
<title>Node4</title>
<g id="a_Node000004"><a xlink:href="namespacefuse_1_1plugins_1_1community_1_1sst_1_1external__validation_1_1runner.html#ab7bf3c6f41d8fa1c4d0ea38e4216d6e6" target="_top" xlink:title=" ">
<polygon fill="white" stroke="#666666" points="194,-267 0,-267 0,-226 194,-226 194,-267"/>
<text text-anchor="start" x="8" y="-255" font-family="Helvetica,sans-Serif" font-size="10.00">fuse.plugins.community.sst.external</text>
<text text-anchor="start" x="8" y="-244" font-family="Helvetica,sans-Serif" font-size="10.00">_validation.runner.run_sst_external</text>
<text text-anchor="middle" x="97" y="-233" font-family="Helvetica,sans-Serif" font-size="10.00">_acceptance</text>
</a>
</g>
</g>
<!-- Node2&#45;&gt;Node4 -->
<g id="edge3_Node000002_Node000004" class="edge">
<title>Node2&#45;&gt;Node4</title>
<g id="a_edge3_Node000002_Node000004"><a xlink:title=" ">
<path fill="none" stroke="#63b8ff" d="M223.95,-251.92C214.02,-251.49 204,-251.06 194.17,-250.64"/>
<polygon fill="#63b8ff" stroke="#63b8ff" points="224.11,-255.43 234.26,-252.36 224.41,-248.43 224.11,-255.43"/>
</a>
</g>
</g>
</g>
</svg>
