<?xml version="1.0" encoding="UTF-8" standalone="no"?>
<!DOCTYPE svg PUBLIC "-//W3C//DTD SVG 1.1//EN"
 "http://www.w3.org/Graphics/SVG/1.1/DTD/svg11.dtd">
<!-- Generated by graphviz version 2.43.0 (0)
 -->
<!-- Title: fuse.core.ui.composite_instance_editor.CompositeTemplateEditorWidget.on_editor_scene_changed Pages: 1 -->
<svg width="1344pt" height="498pt"
 viewBox="0.00 0.00 1344.00 498.00" xmlns="http://www.w3.org/2000/svg" xmlns:xlink="http://www.w3.org/1999/xlink">
<g id="graph0" class="graph" transform="scale(1 1) rotate(0) translate(4 494)">
<title>fuse.core.ui.composite_instance_editor.CompositeTemplateEditorWidget.on_editor_scene_changed</title>
<!-- Node1 -->
<g id="Node000001" class="node">
<title>Node1</title>
<g id="a_Node000001"><a xlink:title=" ">
<polygon fill="#999999" stroke="#666666" points="209,-243 0,-243 0,-202 209,-202 209,-243"/>
<text text-anchor="start" x="8" y="-231" font-family="Helvetica,sans-Serif" font-size="10.00">fuse.core.ui.composite</text>
<text text-anchor="start" x="8" y="-220" font-family="Helvetica,sans-Serif" font-size="10.00">_instance_editor.CompositeTemplate</text>
<text text-anchor="middle" x="104.5" y="-209" font-family="Helvetica,sans-Serif" font-size="10.00">EditorWidget.on_editor_scene_changed</text>
</a>
</g>
</g>
<!-- Node2 -->
<g id="Node000002" class="node">
<title>Node2</title>
<g id="a_Node000002"><a xlink:href="classfuse_1_1core_1_1ui_1_1composite__instance__editor_1_1CompositeInstanceEditorWidget.html#ab7258251997d44f64aec2c966c316d26" target="_top" xlink:title=" ">
<polygon fill="white" stroke="#666666" points="463,-316 245,-316 245,-275 463,-275 463,-316"/>
<text text-anchor="start" x="253" y="-304" font-family="Helvetica,sans-Serif" font-size="10.00">fuse.core.ui.composite</text>
<text text-anchor="start" x="253" y="-293" font-family="Helvetica,sans-Serif" font-size="10.00">_instance_editor.CompositeInstance</text>
<text text-anchor="middle" x="354" y="-282" font-family="Helvetica,sans-Serif" font-size="10.00">EditorWidget.apply_current_edit_to_node</text>
</a>
</g>
</g>
<!-- Node1&#45;&gt;Node2 -->
<g id="edge1_Node000001_Node000002" class="edge">
<title>Node1&#45;&gt;Node2</title>
<g id="a_edge1_Node000001_Node000002"><a xlink:title=" ">
<path fill="none" stroke="#63b8ff" d="M175.1,-243.03C205.81,-252.09 242.06,-262.78 273.8,-272.14"/>
<polygon fill="#63b8ff" stroke="#63b8ff" points="272.91,-275.53 283.49,-275 274.89,-268.81 272.91,-275.53"/>
</a>
</g>
</g>
<!-- Node19 -->
<g id="Node000019" class="node">
<title>Node19</title>
<g id="a_Node000019"><a xlink:href="classfuse_1_1core_1_1ui_1_1composite__instance__editor_1_1CompositeTemplateEditorWidget.html#a5f4a18e53c3f40594ba5689d7feffc1d" target="_top" xlink:title=" ">
<polygon fill="white" stroke="#666666" points="463,-243 245,-243 245,-202 463,-202 463,-243"/>
<text text-anchor="start" x="253" y="-231" font-family="Helvetica,sans-Serif" font-size="10.00">fuse.core.ui.composite</text>
<text text-anchor="start" x="253" y="-220" font-family="Helvetica,sans-Serif" font-size="10.00">_instance_editor.CompositeTemplate</text>
<text text-anchor="middle" x="354" y="-209" font-family="Helvetica,sans-Serif" font-size="10.00">EditorWidget.apply_current_edit_to_node</text>
</a>
</g>
</g>
<!-- Node1&#45;&gt;Node19 -->
<g id="edge25_Node000001_Node000019" class="edge">
<title>Node1&#45;&gt;Node19</title>
<g id="a_edge25_Node000001_Node000019"><a xlink:title=" ">
<path fill="none" stroke="#63b8ff" d="M209.03,-222.5C217.5,-222.5 226.11,-222.5 234.67,-222.5"/>
<polygon fill="#63b8ff" stroke="#63b8ff" points="234.71,-226 244.71,-222.5 234.71,-219 234.71,-226"/>
</a>
</g>
</g>
<!-- Node20 -->
<g id="Node000020" class="node">
<title>Node20</title>
<g id="a_Node000020"><a xlink:href="classfuse_1_1core_1_1ui_1_1composite__instance__editor_1_1CompositeTemplateEditorWidget.html#a20bc566e469116a3542108370370674e" target="_top" xlink:title=" ">
<polygon fill="white" stroke="#666666" points="452.5,-116 255.5,-116 255.5,-75 452.5,-75 452.5,-116"/>
<text text-anchor="start" x="263.5" y="-104" font-family="Helvetica,sans-Serif" font-size="10.00">fuse.core.ui.composite</text>
<text text-anchor="start" x="263.5" y="-93" font-family="Helvetica,sans-Serif" font-size="10.00">_instance_editor.CompositeTemplate</text>
<text text-anchor="middle" x="354" y="-82" font-family="Helvetica,sans-Serif" font-size="10.00">EditorWidget.set_template_dirty</text>
</a>
</g>
</g>
<!-- Node1&#45;&gt;Node20 -->
<g id="edge32_Node000001_Node000020" class="edge">
<title>Node1&#45;&gt;Node20</title>
<g id="a_edge32_Node000001_Node000020"><a xlink:title=" ">
<path fill="none" stroke="#63b8ff" d="M145.54,-201.95C188.76,-179.77 257.64,-144.43 304.05,-120.62"/>
<polygon fill="#63b8ff" stroke="#63b8ff" points="305.72,-123.7 313.02,-116.02 302.52,-117.47 305.72,-123.7"/>
</a>
</g>
</g>
<!-- Node3 -->
<g id="Node000003" class="node">
<title>Node3</title>
<g id="a_Node000003"><a xlink:href="namespacefuse_1_1core_1_1ui_1_1composite__instance__editor.html#a5fd7885706c7a7c1fce6889fa0b0d103" target="_top" xlink:title=" ">
<polygon fill="white" stroke="#666666" points="686.5,-490 543.5,-490 543.5,-449 686.5,-449 686.5,-490"/>
<text text-anchor="start" x="551.5" y="-478" font-family="Helvetica,sans-Serif" font-size="10.00">fuse.core.ui.composite</text>
<text text-anchor="start" x="551.5" y="-467" font-family="Helvetica,sans-Serif" font-size="10.00">_instance_editor.apply</text>
<text text-anchor="middle" x="615" y="-456" font-family="Helvetica,sans-Serif" font-size="10.00">_composite_instance_edit</text>
</a>
</g>
</g>
<!-- Node2&#45;&gt;Node3 -->
<g id="edge2_Node000002_Node000003" class="edge">
<title>Node2&#45;&gt;Node3</title>
<g id="a_edge2_Node000002_Node000003"><a xlink:title=" ">
<path fill="none" stroke="#63b8ff" d="M369.5,-316.05C392.97,-347.74 442.44,-408.27 499,-440.5 509.66,-446.57 521.58,-451.39 533.61,-455.21"/>
<polygon fill="#63b8ff" stroke="#63b8ff" points="532.67,-458.58 543.25,-458.06 534.65,-451.87 532.67,-458.58"/>
</a>
</g>
</g>
<!-- Node4 -->
<g id="Node000004" class="node">
<title>Node4</title>
<g id="a_Node000004"><a xlink:href="classfuse_1_1core_1_1ui_1_1composite__instance__editor_1_1CompositeInstanceEditorWidget.html#aa15141b0f6a8df15340ff5a885bf5e5d" target="_top" xlink:title=" ">
<polygon fill="white" stroke="#666666" points="711.5,-431 518.5,-431 518.5,-390 711.5,-390 711.5,-431"/>
<text text-anchor="start" x="526.5" y="-419" font-family="Helvetica,sans-Serif" font-size="10.00">fuse.core.ui.composite</text>
<text text-anchor="start" x="526.5" y="-408" font-family="Helvetica,sans-Serif" font-size="10.00">_instance_editor.CompositeInstance</text>
<text text-anchor="middle" x="615" y="-397" font-family="Helvetica,sans-Serif" font-size="10.00">EditorWidget.edited_mini_model</text>
</a>
</g>
</g>
<!-- Node2&#45;&gt;Node4 -->
<g id="edge3_Node000002_Node000004" class="edge">
<title>Node2&#45;&gt;Node4</title>
<g id="a_edge3_Node000002_Node000004"><a xlink:title=" ">
<path fill="none" stroke="#63b8ff" d="M383.73,-316.1C411.89,-335.44 456.63,-363.95 499,-381.5 503.41,-383.32 507.95,-385.06 512.58,-386.7"/>
<polygon fill="#63b8ff" stroke="#63b8ff" points="511.59,-390.06 522.19,-389.94 513.83,-383.42 511.59,-390.06"/>
</a>
</g>
</g>
<!-- Node6 -->
<g id="Node000006" class="node">
<title>Node6</title>
<g id="a_Node000006"><a xlink:href="classfuse_1_1core_1_1ui_1_1composite__instance__editor_1_1CompositeTemplateEditorWidget.html#ad3709b9ee282fb4812823b2f40b73a5b" target="_top" xlink:title=" ">
<polygon fill="white" stroke="#666666" points="713.5,-372 516.5,-372 516.5,-331 713.5,-331 713.5,-372"/>
<text text-anchor="start" x="524.5" y="-360" font-family="Helvetica,sans-Serif" font-size="10.00">fuse.core.ui.composite</text>
<text text-anchor="start" x="524.5" y="-349" font-family="Helvetica,sans-Serif" font-size="10.00">_instance_editor.CompositeTemplate</text>
<text text-anchor="middle" x="615" y="-338" font-family="Helvetica,sans-Serif" font-size="10.00">EditorWidget.edited_mini_model</text>
</a>
</g>
</g>
<!-- Node2&#45;&gt;Node6 -->
<g id="edge5_Node000002_Node000006" class="edge">
<title>Node2&#45;&gt;Node6</title>
<g id="a_edge5_Node000002_Node000006"><a xlink:title=" ">
<path fill="none" stroke="#63b8ff" d="M449.97,-316.03C469.24,-320.2 489.61,-324.6 509.19,-328.84"/>
<polygon fill="#63b8ff" stroke="#63b8ff" points="508.53,-332.28 519.04,-330.97 510.01,-325.43 508.53,-332.28"/>
</a>
</g>
</g>
<!-- Node7 -->
<g id="Node000007" class="node">
<title>Node7</title>
<g id="a_Node000007"><a xlink:href="classfuse_1_1core_1_1ui_1_1composite__instance__editor_1_1CompositeInstanceEditorWidget.html#a5dbbd7358fed7540c399a3f3a1a22627" target="_top" xlink:title=" ">
<polygon fill="white" stroke="#666666" points="962,-148 769,-148 769,-107 962,-107 962,-148"/>
<text text-anchor="start" x="777" y="-136" font-family="Helvetica,sans-Serif" font-size="10.00">fuse.core.ui.composite</text>
<text text-anchor="start" x="777" y="-125" font-family="Helvetica,sans-Serif" font-size="10.00">_instance_editor.CompositeInstance</text>
<text text-anchor="middle" x="865.5" y="-114" font-family="Helvetica,sans-Serif" font-size="10.00">EditorWidget.edited_port_mappings</text>
</a>
</g>
</g>
<!-- Node2&#45;&gt;Node7 -->
<g id="edge7_Node000002_Node000007" class="edge">
<title>Node2&#45;&gt;Node7</title>
<g id="a_edge7_Node000002_Node000007"><a xlink:title=" ">
<path fill="none" stroke="#63b8ff" d="M432.32,-274.96C443.76,-269.19 454.53,-261.85 463,-252.5 501.82,-209.66 452.81,-162.27 499,-127.5 538.5,-97.77 665.33,-104.23 758.54,-113.84"/>
<polygon fill="#63b8ff" stroke="#63b8ff" points="758.28,-117.33 768.59,-114.9 759.01,-110.37 758.28,-117.33"/>
</a>
</g>
</g>
<!-- Node13 -->
<g id="Node000013" class="node">
<title>Node13</title>
<g id="a_Node000013"><a xlink:href="classfuse_1_1core_1_1ui_1_1composite__instance__editor_1_1CompositeTemplateEditorWidget.html#ab6464e3bd7f3bb0a81b4acd99b95293f" target="_top" xlink:title=" ">
<polygon fill="white" stroke="#666666" points="964,-266 767,-266 767,-225 964,-225 964,-266"/>
<text text-anchor="start" x="775" y="-254" font-family="Helvetica,sans-Serif" font-size="10.00">fuse.core.ui.composite</text>
<text text-anchor="start" x="775" y="-243" font-family="Helvetica,sans-Serif" font-size="10.00">_instance_editor.CompositeTemplate</text>
<text text-anchor="middle" x="865.5" y="-232" font-family="Helvetica,sans-Serif" font-size="10.00">EditorWidget.edited_port_mappings</text>
</a>
</g>
</g>
<!-- Node2&#45;&gt;Node13 -->
<g id="edge13_Node000002_Node000013" class="edge">
<title>Node2&#45;&gt;Node13</title>
<g id="a_edge13_Node000002_Node000013"><a xlink:title=" ">
<path fill="none" stroke="#63b8ff" d="M463.27,-286.55C538.44,-280.13 640.88,-270.97 731,-261.5 739.34,-260.62 747.97,-259.68 756.65,-258.7"/>
<polygon fill="#63b8ff" stroke="#63b8ff" points="757.3,-262.15 766.84,-257.54 756.5,-255.19 757.3,-262.15"/>
</a>
</g>
</g>
<!-- Node14 -->
<g id="Node000014" class="node">
<title>Node14</title>
<g id="a_Node000014"><a xlink:href="classfuse_1_1core_1_1ui_1_1composite__instance__editor_1_1CompositeInstanceEditorWidget.html#a1e400b6ce8abdf888122733472ce06d9" target="_top" xlink:title=" ">
<polygon fill="white" stroke="#666666" points="731,-236 499,-236 499,-195 731,-195 731,-236"/>
<text text-anchor="start" x="507" y="-224" font-family="Helvetica,sans-Serif" font-size="10.00">fuse.core.ui.composite</text>
<text text-anchor="start" x="507" y="-213" font-family="Helvetica,sans-Serif" font-size="10.00">_instance_editor.CompositeInstance</text>
<text text-anchor="middle" x="615" y="-202" font-family="Helvetica,sans-Serif" font-size="10.00">EditorWidget.refresh_port_exposure_visuals</text>
</a>
</g>
</g>
<!-- Node2&#45;&gt;Node14 -->
<g id="edge15_Node000002_Node000014" class="edge">
<title>Node2&#45;&gt;Node14</title>
<g id="a_edge15_Node000002_Node000014"><a xlink:title=" ">
<path fill="none" stroke="#63b8ff" d="M421.7,-274.9C457.2,-263.93 501,-250.4 537.83,-239.03"/>
<polygon fill="#63b8ff" stroke="#63b8ff" points="539.01,-242.33 547.53,-236.03 536.94,-235.64 539.01,-242.33"/>
</a>
</g>
</g>
<!-- Node18 -->
<g id="Node000018" class="node">
<title>Node18</title>
<g id="a_Node000018"><a xlink:href="classfuse_1_1core_1_1ui_1_1composite__instance__editor_1_1CompositeTemplateEditorWidget.html#a0192859f9b808604d00ebfcaf4c4bc7f" target="_top" xlink:title=" ">
<polygon fill="white" stroke="#666666" points="731,-177 499,-177 499,-136 731,-136 731,-177"/>
<text text-anchor="start" x="507" y="-165" font-family="Helvetica,sans-Serif" font-size="10.00">fuse.core.ui.composite</text>
<text text-anchor="start" x="507" y="-154" font-family="Helvetica,sans-Serif" font-size="10.00">_instance_editor.CompositeTemplate</text>
<text text-anchor="middle" x="615" y="-143" font-family="Helvetica,sans-Serif" font-size="10.00">EditorWidget.refresh_port_exposure_visuals</text>
</a>
</g>
</g>
<!-- Node2&#45;&gt;Node18 -->
<g id="edge21_Node000002_Node000018" class="edge">
<title>Node2&#45;&gt;Node18</title>
<g id="a_edge21_Node000002_Node000018"><a xlink:title=" ">
<path fill="none" stroke="#63b8ff" d="M427.01,-274.97C439.93,-269.12 452.58,-261.74 463,-252.5 488.01,-230.34 472.67,-207.07 499,-186.5 500.85,-185.05 502.76,-183.68 504.73,-182.37"/>
<polygon fill="#63b8ff" stroke="#63b8ff" points="506.87,-185.17 513.66,-177.04 503.28,-179.16 506.87,-185.17"/>
</a>
</g>
</g>
<!-- Node5 -->
<g id="Node000005" class="node">
<title>Node5</title>
<g id="a_Node000005"><a xlink:href="namespacefuse_1_1core_1_1ui_1_1composite__instance__editor.html#a090a2f04b50030f04b03323f61ee0f86" target="_top" xlink:title=" ">
<polygon fill="white" stroke="#666666" points="929.5,-401 801.5,-401 801.5,-360 929.5,-360 929.5,-401"/>
<text text-anchor="start" x="809.5" y="-389" font-family="Helvetica,sans-Serif" font-size="10.00">fuse.core.ui.composite</text>
<text text-anchor="start" x="809.5" y="-378" font-family="Helvetica,sans-Serif" font-size="10.00">_instance_editor.mini</text>
<text text-anchor="middle" x="865.5" y="-367" font-family="Helvetica,sans-Serif" font-size="10.00">_model_from_scene</text>
</a>
</g>
</g>
<!-- Node4&#45;&gt;Node5 -->
<g id="edge4_Node000004_Node000005" class="edge">
<title>Node4&#45;&gt;Node5</title>
<g id="a_edge4_Node000004_Node000005"><a xlink:title=" ">
<path fill="none" stroke="#63b8ff" d="M711.72,-398.94C738.16,-395.75 766.42,-392.34 791.35,-389.33"/>
<polygon fill="#63b8ff" stroke="#63b8ff" points="791.95,-392.78 801.45,-388.11 791.11,-385.84 791.95,-392.78"/>
</a>
</g>
</g>
<!-- Node6&#45;&gt;Node5 -->
<g id="edge6_Node000006_Node000005" class="edge">
<title>Node6&#45;&gt;Node5</title>
<g id="a_edge6_Node000006_Node000005"><a xlink:title=" ">
<path fill="none" stroke="#63b8ff" d="M713.5,-362.88C739.32,-365.89 766.75,-369.09 791.06,-371.93"/>
<polygon fill="#63b8ff" stroke="#63b8ff" points="790.93,-375.44 801.27,-373.12 791.74,-368.49 790.93,-375.44"/>
</a>
</g>
</g>
<!-- Node8 -->
<g id="Node000008" class="node">
<title>Node8</title>
<g id="a_Node000008"><a xlink:href="namespacefuse_1_1core_1_1ui_1_1composite__instance__editor.html#a275a18007371d2e9f819d1522d0591ba" target="_top" xlink:title=" ">
<polygon fill="white" stroke="#666666" points="1150,-148 1000,-148 1000,-107 1150,-107 1150,-148"/>
<text text-anchor="start" x="1008" y="-136" font-family="Helvetica,sans-Serif" font-size="10.00">fuse.core.ui.composite</text>
<text text-anchor="start" x="1008" y="-125" font-family="Helvetica,sans-Serif" font-size="10.00">_instance_editor.composite</text>
<text text-anchor="middle" x="1075" y="-114" font-family="Helvetica,sans-Serif" font-size="10.00">_instance_port_mappings</text>
</a>
</g>
</g>
<!-- Node7&#45;&gt;Node8 -->
<g id="edge8_Node000007_Node000008" class="edge">
<title>Node7&#45;&gt;Node8</title>
<g id="a_edge8_Node000007_Node000008"><a xlink:title=" ">
<path fill="none" stroke="#63b8ff" d="M962.05,-127.5C971.25,-127.5 980.53,-127.5 989.61,-127.5"/>
<polygon fill="#63b8ff" stroke="#63b8ff" points="989.75,-131 999.75,-127.5 989.75,-124 989.75,-131"/>
</a>
</g>
</g>
<!-- Node11 -->
<g id="Node000011" class="node">
<title>Node11</title>
<g id="a_Node000011"><a xlink:href="namespacefuse_1_1core_1_1ui_1_1composite__instance__editor.html#a7d4c47b26123ae16c501a32e291d3639" target="_top" xlink:title=" ">
<polygon fill="white" stroke="#666666" points="1141,-266 1009,-266 1009,-225 1141,-225 1141,-266"/>
<text text-anchor="start" x="1017" y="-254" font-family="Helvetica,sans-Serif" font-size="10.00">fuse.core.ui.composite</text>
<text text-anchor="start" x="1017" y="-243" font-family="Helvetica,sans-Serif" font-size="10.00">_instance_editor.port</text>
<text text-anchor="middle" x="1075" y="-232" font-family="Helvetica,sans-Serif" font-size="10.00">_mappings_from_scene</text>
</a>
</g>
</g>
<!-- Node7&#45;&gt;Node11 -->
<g id="edge11_Node000007_Node000011" class="edge">
<title>Node7&#45;&gt;Node11</title>
<g id="a_edge11_Node000007_Node000011"><a xlink:title=" ">
<path fill="none" stroke="#63b8ff" d="M949.53,-148.22C954.65,-150.94 959.53,-154.02 964,-157.5 988.25,-176.35 976.47,-196.75 1000,-216.5 1001.16,-217.47 1002.35,-218.41 1003.57,-219.32"/>
<polygon fill="#63b8ff" stroke="#63b8ff" points="1001.77,-222.33 1012.04,-224.92 1005.63,-216.49 1001.77,-222.33"/>
</a>
</g>
</g>
<!-- Node9 -->
<g id="Node000009" class="node">
<title>Node9</title>
<g id="a_Node000009"><a xlink:href="namespacefuse_1_1core_1_1ui_1_1composite__instance__editor.html#a4404f70529a8de8aea6ae08c12303bcb" target="_top" xlink:title=" ">
<polygon fill="white" stroke="#666666" points="1336,-89 1186,-89 1186,-48 1336,-48 1336,-89"/>
<text text-anchor="start" x="1194" y="-77" font-family="Helvetica,sans-Serif" font-size="10.00">fuse.core.ui.composite</text>
<text text-anchor="start" x="1194" y="-66" font-family="Helvetica,sans-Serif" font-size="10.00">_instance_editor.composite</text>
<text text-anchor="middle" x="1261" y="-55" font-family="Helvetica,sans-Serif" font-size="10.00">_definition_for_node</text>
</a>
</g>
</g>
<!-- Node8&#45;&gt;Node9 -->
<g id="edge9_Node000008_Node000009" class="edge">
<title>Node8&#45;&gt;Node9</title>
<g id="a_edge9_Node000008_Node000009"><a xlink:title=" ">
<path fill="none" stroke="#63b8ff" d="M1140.1,-106.95C1154.9,-102.2 1170.77,-97.11 1185.96,-92.24"/>
<polygon fill="#63b8ff" stroke="#63b8ff" points="1187.37,-95.47 1195.82,-89.08 1185.23,-88.8 1187.37,-95.47"/>
</a>
</g>
</g>
<!-- Node10 -->
<g id="Node000010" class="node">
<title>Node10</title>
<g id="a_Node000010"><a xlink:href="namespacefuse_1_1core_1_1ui_1_1composite__instance__editor.html#af9b25b962b8e207c7799682c90e62d27" target="_top" xlink:title=" ">
<polygon fill="white" stroke="#666666" points="1331,-148 1191,-148 1191,-107 1331,-107 1331,-148"/>
<text text-anchor="start" x="1199" y="-136" font-family="Helvetica,sans-Serif" font-size="10.00">fuse.core.ui.composite</text>
<text text-anchor="start" x="1199" y="-125" font-family="Helvetica,sans-Serif" font-size="10.00">_instance_editor.mini</text>
<text text-anchor="middle" x="1261" y="-114" font-family="Helvetica,sans-Serif" font-size="10.00">_model_has_components</text>
</a>
</g>
</g>
<!-- Node8&#45;&gt;Node10 -->
<g id="edge10_Node000008_Node000010" class="edge">
<title>Node8&#45;&gt;Node10</title>
<g id="a_edge10_Node000008_Node000010"><a xlink:title=" ">
<path fill="none" stroke="#63b8ff" d="M1150.04,-127.5C1160.16,-127.5 1170.57,-127.5 1180.77,-127.5"/>
<polygon fill="#63b8ff" stroke="#63b8ff" points="1180.87,-131 1190.87,-127.5 1180.87,-124 1180.87,-131"/>
</a>
</g>
</g>
<!-- Node12 -->
<g id="Node000012" class="node">
<title>Node12</title>
<g id="a_Node000012"><a xlink:href="namespacefuse_1_1core_1_1ui_1_1composite__instance__editor.html#ac487540de07cef11549bec2dd7f04f1d" target="_top" xlink:title=" ">
<polygon fill="white" stroke="#666666" points="1332,-266 1190,-266 1190,-225 1332,-225 1332,-266"/>
<text text-anchor="start" x="1198" y="-254" font-family="Helvetica,sans-Serif" font-size="10.00">fuse.core.ui.composite</text>
<text text-anchor="start" x="1198" y="-243" font-family="Helvetica,sans-Serif" font-size="10.00">_instance_editor.preserve</text>
<text text-anchor="middle" x="1261" y="-232" font-family="Helvetica,sans-Serif" font-size="10.00">_exposed_state</text>
</a>
</g>
</g>
<!-- Node11&#45;&gt;Node12 -->
<g id="edge12_Node000011_Node000012" class="edge">
<title>Node11&#45;&gt;Node12</title>
<g id="a_edge12_Node000011_Node000012"><a xlink:title=" ">
<path fill="none" stroke="#63b8ff" d="M1141.13,-245.5C1153.61,-245.5 1166.82,-245.5 1179.71,-245.5"/>
<polygon fill="#63b8ff" stroke="#63b8ff" points="1179.96,-249 1189.96,-245.5 1179.96,-242 1179.96,-249"/>
</a>
</g>
</g>
<!-- Node13&#45;&gt;Node11 -->
<g id="edge14_Node000013_Node000011" class="edge">
<title>Node13&#45;&gt;Node11</title>
<g id="a_edge14_Node000013_Node000011"><a xlink:title=" ">
<path fill="none" stroke="#63b8ff" d="M964.17,-245.5C975.76,-245.5 987.45,-245.5 998.66,-245.5"/>
<polygon fill="#63b8ff" stroke="#63b8ff" points="998.81,-249 1008.81,-245.5 998.81,-242 998.81,-249"/>
</a>
</g>
</g>
<!-- Node14&#45;&gt;Node7 -->
<g id="edge16_Node000014_Node000007" class="edge">
<title>Node14&#45;&gt;Node7</title>
<g id="a_edge16_Node000014_Node000007"><a xlink:title=" ">
<path fill="none" stroke="#63b8ff" d="M711.32,-194.95C718.11,-192.43 724.74,-189.62 731,-186.5 749.39,-177.33 748.86,-167.14 767,-157.5 770.7,-155.54 774.54,-153.68 778.47,-151.93"/>
<polygon fill="#63b8ff" stroke="#63b8ff" points="779.91,-155.12 787.78,-148.03 777.21,-148.66 779.91,-155.12"/>
</a>
</g>
</g>
<!-- Node14&#45;&gt;Node13 -->
<g id="edge17_Node000014_Node000013" class="edge">
<title>Node14&#45;&gt;Node13</title>
<g id="a_edge17_Node000014_Node000013"><a xlink:title=" ">
<path fill="none" stroke="#63b8ff" d="M731.16,-229.4C739.73,-230.44 748.37,-231.48 756.9,-232.51"/>
<polygon fill="#63b8ff" stroke="#63b8ff" points="756.51,-235.99 766.85,-233.71 757.34,-229.04 756.51,-235.99"/>
</a>
</g>
</g>
<!-- Node15 -->
<g id="Node000015" class="node">
<title>Node15</title>
<g id="a_Node000015"><a xlink:href="namespacefuse_1_1core_1_1ui_1_1composite__instance__editor.html#a1e14bb55cdb139d8c145181ff3d96474" target="_top" xlink:title=" ">
<polygon fill="white" stroke="#666666" points="948,-207 783,-207 783,-166 948,-166 948,-207"/>
<text text-anchor="start" x="791" y="-195" font-family="Helvetica,sans-Serif" font-size="10.00">fuse.core.ui.composite</text>
<text text-anchor="start" x="791" y="-184" font-family="Helvetica,sans-Serif" font-size="10.00">_instance_editor.update</text>
<text text-anchor="middle" x="865.5" y="-173" font-family="Helvetica,sans-Serif" font-size="10.00">_editor_port_exposure_visuals</text>
</a>
</g>
</g>
<!-- Node14&#45;&gt;Node15 -->
<g id="edge18_Node000014_Node000015" class="edge">
<title>Node14&#45;&gt;Node15</title>
<g id="a_edge18_Node000014_Node000015"><a xlink:title=" ">
<path fill="none" stroke="#63b8ff" d="M731.16,-202.06C745.02,-200.44 759.03,-198.81 772.5,-197.24"/>
<polygon fill="#63b8ff" stroke="#63b8ff" points="773.15,-200.68 782.68,-196.05 772.34,-193.73 773.15,-200.68"/>
</a>
</g>
</g>
<!-- Node16 -->
<g id="Node000016" class="node">
<title>Node16</title>
<g id="a_Node000016"><a xlink:href="namespacefuse_1_1core_1_1ui_1_1composite__instance__editor.html#aeb5bcb02fc5c1ec3b905f7033be4d191" target="_top" xlink:title=" ">
<polygon fill="white" stroke="#666666" points="1147,-207 1003,-207 1003,-166 1147,-166 1147,-207"/>
<text text-anchor="start" x="1011" y="-195" font-family="Helvetica,sans-Serif" font-size="10.00">fuse.core.ui.composite</text>
<text text-anchor="start" x="1011" y="-184" font-family="Helvetica,sans-Serif" font-size="10.00">_instance_editor.port</text>
<text text-anchor="middle" x="1075" y="-173" font-family="Helvetica,sans-Serif" font-size="10.00">_is_exposed_in_mappings</text>
</a>
</g>
</g>
<!-- Node15&#45;&gt;Node16 -->
<g id="edge19_Node000015_Node000016" class="edge">
<title>Node15&#45;&gt;Node16</title>
<g id="a_edge19_Node000015_Node000016"><a xlink:title=" ">
<path fill="none" stroke="#63b8ff" d="M948.21,-186.5C962.86,-186.5 978.13,-186.5 992.77,-186.5"/>
<polygon fill="#63b8ff" stroke="#63b8ff" points="992.78,-190 1002.78,-186.5 992.78,-183 992.78,-190"/>
</a>
</g>
</g>
<!-- Node17 -->
<g id="Node000017" class="node">
<title>Node17</title>
<g id="a_Node000017"><a xlink:href="namespacefuse_1_1core_1_1ui_1_1composite__instance__editor.html#aa2a1cb23173589fc850deccd36f25836" target="_top" xlink:title=" ">
<polygon fill="white" stroke="#666666" points="1329.5,-207 1192.5,-207 1192.5,-166 1329.5,-166 1329.5,-207"/>
<text text-anchor="start" x="1200.5" y="-195" font-family="Helvetica,sans-Serif" font-size="10.00">fuse.core.ui.composite</text>
<text text-anchor="start" x="1200.5" y="-184" font-family="Helvetica,sans-Serif" font-size="10.00">_instance_editor.port</text>
<text text-anchor="middle" x="1261" y="-173" font-family="Helvetica,sans-Serif" font-size="10.00">_mapping_matches_port</text>
</a>
</g>
</g>
<!-- Node16&#45;&gt;Node17 -->
<g id="edge20_Node000016_Node000017" class="edge">
<title>Node16&#45;&gt;Node17</title>
<g id="a_edge20_Node000016_Node000017"><a xlink:title=" ">
<path fill="none" stroke="#63b8ff" d="M1147.14,-186.5C1158.64,-186.5 1170.59,-186.5 1182.24,-186.5"/>
<polygon fill="#63b8ff" stroke="#63b8ff" points="1182.37,-190 1192.37,-186.5 1182.37,-183 1182.37,-190"/>
</a>
</g>
</g>
<!-- Node18&#45;&gt;Node7 -->
<g id="edge22_Node000018_Node000007" class="edge">
<title>Node18&#45;&gt;Node7</title>
<g id="a_edge22_Node000018_Node000007"><a xlink:title=" ">
<path fill="none" stroke="#63b8ff" d="M731.16,-143.06C740.29,-142 749.49,-140.92 758.55,-139.86"/>
<polygon fill="#63b8ff" stroke="#63b8ff" points="759.19,-143.31 768.72,-138.68 758.38,-136.36 759.19,-143.31"/>
</a>
</g>
</g>
<!-- Node18&#45;&gt;Node13 -->
<g id="edge23_Node000018_Node000013" class="edge">
<title>Node18&#45;&gt;Node13</title>
<g id="a_edge23_Node000018_Node000013"><a xlink:title=" ">
<path fill="none" stroke="#63b8ff" d="M709.28,-177.02C716.79,-179.82 724.12,-182.96 731,-186.5 749.52,-196.02 748.64,-206.66 767,-216.5 769.88,-218.04 772.85,-219.51 775.89,-220.92"/>
<polygon fill="#63b8ff" stroke="#63b8ff" points="774.6,-224.17 785.17,-224.92 777.37,-217.74 774.6,-224.17"/>
</a>
</g>
</g>
<!-- Node18&#45;&gt;Node15 -->
<g id="edge24_Node000018_Node000015" class="edge">
<title>Node18&#45;&gt;Node15</title>
<g id="a_edge24_Node000018_Node000015"><a xlink:title=" ">
<path fill="none" stroke="#63b8ff" d="M731.16,-170.4C745.02,-172.08 759.03,-173.77 772.5,-175.39"/>
<polygon fill="#63b8ff" stroke="#63b8ff" points="772.33,-178.9 782.68,-176.62 773.17,-171.95 772.33,-178.9"/>
</a>
</g>
</g>
<!-- Node19&#45;&gt;Node4 -->
<g id="edge26_Node000019_Node000004" class="edge">
<title>Node19&#45;&gt;Node4</title>
<g id="a_edge26_Node000019_Node000004"><a xlink:title=" ">
<path fill="none" stroke="#63b8ff" d="M430.49,-243.12C442.57,-249.09 454.02,-256.74 463,-266.5 499.26,-305.92 460.08,-344.71 499,-381.5 502.33,-384.65 505.95,-387.47 509.79,-389.99"/>
<polygon fill="#63b8ff" stroke="#63b8ff" points="508.09,-393.06 518.5,-395.06 511.61,-387.01 508.09,-393.06"/>
</a>
</g>
</g>
<!-- Node19&#45;&gt;Node6 -->
<g id="edge27_Node000019_Node000006" class="edge">
<title>Node19&#45;&gt;Node6</title>
<g id="a_edge27_Node000019_Node000006"><a xlink:title=" ">
<path fill="none" stroke="#63b8ff" d="M409.14,-243.01C426.54,-250.01 445.77,-258.18 463,-266.5 500.44,-284.58 541.46,-307.91 571.29,-325.55"/>
<polygon fill="#63b8ff" stroke="#63b8ff" points="569.79,-328.73 580.17,-330.83 573.37,-322.71 569.79,-328.73"/>
</a>
</g>
</g>
<!-- Node19&#45;&gt;Node7 -->
<g id="edge28_Node000019_Node000007" class="edge">
<title>Node19&#45;&gt;Node7</title>
<g id="a_edge28_Node000019_Node000007"><a xlink:title=" ">
<path fill="none" stroke="#63b8ff" d="M378.05,-201.81C418.6,-165.4 498.53,-93.68 499,-93.5 597.98,-55.65 722.58,-81.31 797.76,-103.95"/>
<polygon fill="#63b8ff" stroke="#63b8ff" points="797,-107.38 807.58,-106.98 799.06,-100.69 797,-107.38"/>
</a>
</g>
</g>
<!-- Node19&#45;&gt;Node13 -->
<g id="edge29_Node000019_Node000013" class="edge">
<title>Node19&#45;&gt;Node13</title>
<g id="a_edge29_Node000019_Node000013"><a xlink:title=" ">
<path fill="none" stroke="#63b8ff" d="M463.29,-241.68C475.3,-243.25 487.39,-244.58 499,-245.5 585.54,-252.37 683.98,-251.89 756.87,-249.97"/>
<polygon fill="#63b8ff" stroke="#63b8ff" points="757.09,-253.46 766.99,-249.68 756.89,-246.46 757.09,-253.46"/>
</a>
</g>
</g>
<!-- Node19&#45;&gt;Node14 -->
<g id="edge30_Node000019_Node000014" class="edge">
<title>Node19&#45;&gt;Node14</title>
<g id="a_edge30_Node000019_Node000014"><a xlink:title=" ">
<path fill="none" stroke="#63b8ff" d="M463.34,-219.57C471.62,-219.35 480.01,-219.12 488.39,-218.89"/>
<polygon fill="#63b8ff" stroke="#63b8ff" points="488.68,-222.39 498.58,-218.62 488.49,-215.39 488.68,-222.39"/>
</a>
</g>
</g>
<!-- Node19&#45;&gt;Node18 -->
<g id="edge31_Node000019_Node000018" class="edge">
<title>Node19&#45;&gt;Node18</title>
<g id="a_edge31_Node000019_Node000018"><a xlink:title=" ">
<path fill="none" stroke="#63b8ff" d="M435.53,-201.98C463.42,-194.87 494.88,-186.86 523.52,-179.56"/>
<polygon fill="#63b8ff" stroke="#63b8ff" points="524.69,-182.87 533.52,-177.01 522.97,-176.09 524.69,-182.87"/>
</a>
</g>
</g>
<!-- Node21 -->
<g id="Node000021" class="node">
<title>Node21</title>
<g id="a_Node000021"><a xlink:href="classfuse_1_1core_1_1ui_1_1composite__instance__editor_1_1CompositeTemplateEditorWidget.html#a2df0e94ea1dd4fff1a388c4f3656fe32" target="_top" xlink:title=" ">
<polygon fill="white" stroke="#666666" points="721,-41 509,-41 509,0 721,0 721,-41"/>
<text text-anchor="start" x="517" y="-29" font-family="Helvetica,sans-Serif" font-size="10.00">fuse.core.ui.composite</text>
<text text-anchor="start" x="517" y="-18" font-family="Helvetica,sans-Serif" font-size="10.00">_instance_editor.CompositeTemplate</text>
<text text-anchor="middle" x="615" y="-7" font-family="Helvetica,sans-Serif" font-size="10.00">EditorWidget.update_save_button_state</text>
</a>
</g>
</g>
<!-- Node20&#45;&gt;Node21 -->
<g id="edge33_Node000020_Node000021" class="edge">
<title>Node20&#45;&gt;Node21</title>
<g id="a_edge33_Node000020_Node000021"><a xlink:title=" ">
<path fill="none" stroke="#63b8ff" d="M426.12,-74.91C459.24,-65.32 498.8,-53.86 533.06,-43.94"/>
<polygon fill="#63b8ff" stroke="#63b8ff" points="534.41,-47.19 543.04,-41.05 532.46,-40.47 534.41,-47.19"/>
</a>
</g>
</g>
</g>
</svg>
