<?xml version="1.0" encoding="UTF-8" standalone="no"?>
<!DOCTYPE svg PUBLIC "-//W3C//DTD SVG 1.1//EN"
 "http://www.w3.org/Graphics/SVG/1.1/DTD/svg11.dtd">
<!-- Generated by graphviz version 2.43.0 (0)
 -->
<!-- Title: fuse.core.ui.graphics_items.ComponentNodeItem.assign_ports_to_sides Pages: 1 -->
<svg width="440pt" height="226pt"
 viewBox="0.00 0.00 440.00 226.00" xmlns="http://www.w3.org/2000/svg" xmlns:xlink="http://www.w3.org/1999/xlink">
<g id="graph0" class="graph" transform="scale(1 1) rotate(0) translate(4 222)">
<title>fuse.core.ui.graphics_items.ComponentNodeItem.assign_ports_to_sides</title>
<!-- Node1 -->
<g id="Node000001" class="node">
<title>Node1</title>
<g id="a_Node000001"><a xlink:title=" ">
<polygon fill="#999999" stroke="#666666" points="191,-129 0,-129 0,-88 191,-88 191,-129"/>
<text text-anchor="start" x="8" y="-117" font-family="Helvetica,sans-Serif" font-size="10.00">fuse.core.ui.graphics</text>
<text text-anchor="start" x="8" y="-106" font-family="Helvetica,sans-Serif" font-size="10.00">_items.ComponentNodeItem.assign</text>
<text text-anchor="middle" x="95.5" y="-95" font-family="Helvetica,sans-Serif" font-size="10.00">_ports_to_sides</text>
</a>
</g>
</g>
<!-- Node2 -->
<g id="Node000002" class="node">
<title>Node2</title>
<g id="a_Node000002"><a xlink:href="classfuse_1_1core_1_1ui_1_1graphics__items_1_1ComponentNodeItem.html#a4cbdb2b8fa4cb88e6bd2923bbdce8ef4" target="_top" xlink:title=" ">
<polygon fill="white" stroke="#666666" points="430.5,-218 228.5,-218 228.5,-177 430.5,-177 430.5,-218"/>
<text text-anchor="start" x="236.5" y="-206" font-family="Helvetica,sans-Serif" font-size="10.00">fuse.core.ui.graphics</text>
<text text-anchor="start" x="236.5" y="-195" font-family="Helvetica,sans-Serif" font-size="10.00">_items.ComponentNodeItem.overflow</text>
<text text-anchor="middle" x="329.5" y="-184" font-family="Helvetica,sans-Serif" font-size="10.00">_sides_for_preference</text>
</a>
</g>
</g>
<!-- Node1&#45;&gt;Node2 -->
<g id="edge1_Node000001_Node000002" class="edge">
<title>Node1&#45;&gt;Node2</title>
<g id="a_edge1_Node000001_Node000002"><a xlink:title=" ">
<path fill="none" stroke="#63b8ff" d="M136.97,-129.05C162.4,-141.48 196.13,-157.07 227,-168.5 231.87,-170.3 236.91,-172.06 242.01,-173.77"/>
<polygon fill="#63b8ff" stroke="#63b8ff" points="241.29,-177.21 251.89,-176.97 243.45,-170.55 241.29,-177.21"/>
</a>
</g>
</g>
<!-- Node3 -->
<g id="Node000003" class="node">
<title>Node3</title>
<g id="a_Node000003"><a xlink:href="classfuse_1_1core_1_1ui_1_1graphics__items_1_1ComponentNodeItem.html#a6e7cc0e7314329fc18880976b91c9424" target="_top" xlink:title=" ">
<polygon fill="white" stroke="#666666" points="419,-159 240,-159 240,-118 419,-118 419,-159"/>
<text text-anchor="start" x="248" y="-147" font-family="Helvetica,sans-Serif" font-size="10.00">fuse.core.ui.graphics</text>
<text text-anchor="start" x="248" y="-136" font-family="Helvetica,sans-Serif" font-size="10.00">_items.ComponentNodeItem.port</text>
<text text-anchor="middle" x="329.5" y="-125" font-family="Helvetica,sans-Serif" font-size="10.00">_family_name</text>
</a>
</g>
</g>
<!-- Node1&#45;&gt;Node3 -->
<g id="edge2_Node000001_Node000003" class="edge">
<title>Node1&#45;&gt;Node3</title>
<g id="a_edge2_Node000001_Node000003"><a xlink:title=" ">
<path fill="none" stroke="#63b8ff" d="M191.2,-120.75C203.85,-122.38 216.86,-124.06 229.58,-125.71"/>
<polygon fill="#63b8ff" stroke="#63b8ff" points="229.35,-129.21 239.71,-127.02 230.25,-122.27 229.35,-129.21"/>
</a>
</g>
</g>
<!-- Node4 -->
<g id="Node000004" class="node">
<title>Node4</title>
<g id="a_Node000004"><a xlink:href="classfuse_1_1core_1_1ui_1_1graphics__items_1_1ComponentNodeItem.html#afe0d70cd4738807e6ec73b7db352d20a" target="_top" xlink:title=" ">
<polygon fill="white" stroke="#666666" points="432,-100 227,-100 227,-59 432,-59 432,-100"/>
<text text-anchor="start" x="235" y="-88" font-family="Helvetica,sans-Serif" font-size="10.00">fuse.core.ui.graphics</text>
<text text-anchor="start" x="235" y="-77" font-family="Helvetica,sans-Serif" font-size="10.00">_items.ComponentNodeItem.preferred</text>
<text text-anchor="middle" x="329.5" y="-66" font-family="Helvetica,sans-Serif" font-size="10.00">_side_for_port</text>
</a>
</g>
</g>
<!-- Node1&#45;&gt;Node4 -->
<g id="edge3_Node000001_Node000004" class="edge">
<title>Node1&#45;&gt;Node4</title>
<g id="a_edge3_Node000001_Node000004"><a xlink:title=" ">
<path fill="none" stroke="#63b8ff" d="M191.2,-96.66C199.66,-95.6 208.28,-94.53 216.87,-93.45"/>
<polygon fill="#63b8ff" stroke="#63b8ff" points="217.44,-96.91 226.93,-92.2 216.58,-89.96 217.44,-96.91"/>
</a>
</g>
</g>
<!-- Node5 -->
<g id="Node000005" class="node">
<title>Node5</title>
<g id="a_Node000005"><a xlink:href="classfuse_1_1core_1_1ui_1_1graphics__items_1_1ComponentNodeItem.html#aefb1be568c8d8ec969cb755af8627890" target="_top" xlink:title=" ">
<polygon fill="white" stroke="#666666" points="419.5,-41 239.5,-41 239.5,0 419.5,0 419.5,-41"/>
<text text-anchor="start" x="247.5" y="-29" font-family="Helvetica,sans-Serif" font-size="10.00">fuse.core.ui.graphics</text>
<text text-anchor="start" x="247.5" y="-18" font-family="Helvetica,sans-Serif" font-size="10.00">_items.ComponentNodeItem.side</text>
<text text-anchor="middle" x="329.5" y="-7" font-family="Helvetica,sans-Serif" font-size="10.00">_capacity</text>
</a>
</g>
</g>
<!-- Node1&#45;&gt;Node5 -->
<g id="edge4_Node000001_Node000005" class="edge">
<title>Node1&#45;&gt;Node5</title>
<g id="a_edge4_Node000001_Node000005"><a xlink:title=" ">
<path fill="none" stroke="#63b8ff" d="M138.83,-88C164.08,-76.19 196.99,-61.55 227,-50.5 232.83,-48.35 238.89,-46.25 245.01,-44.22"/>
<polygon fill="#63b8ff" stroke="#63b8ff" points="246.24,-47.5 254.67,-41.09 244.08,-40.84 246.24,-47.5"/>
</a>
</g>
</g>
</g>
</svg>
