<?xml version="1.0" encoding="UTF-8" standalone="no"?>
<!DOCTYPE svg PUBLIC "-//W3C//DTD SVG 1.1//EN"
 "http://www.w3.org/Graphics/SVG/1.1/DTD/svg11.dtd">
<!-- Generated by graphviz version 2.43.0 (0)
 -->
<!-- Title: fuse.core.ui.model_scene.ModelScene.generate_unique_component_name Pages: 1 -->
<svg width="632pt" height="146pt"
 viewBox="0.00 0.00 632.00 145.50" xmlns="http://www.w3.org/2000/svg" xmlns:xlink="http://www.w3.org/1999/xlink">
<g id="graph0" class="graph" transform="scale(1 1) rotate(0) translate(4 141.5)">
<title>fuse.core.ui.model_scene.ModelScene.generate_unique_component_name</title>
<!-- Node1 -->
<g id="Node000001" class="node">
<title>Node1</title>
<g id="a_Node000001"><a xlink:title=" ">
<polygon fill="#999999" stroke="#666666" points="159,-95 0,-95 0,-54 159,-54 159,-95"/>
<text text-anchor="start" x="8" y="-83" font-family="Helvetica,sans-Serif" font-size="10.00">fuse.core.ui.model</text>
<text text-anchor="start" x="8" y="-72" font-family="Helvetica,sans-Serif" font-size="10.00">_scene.ModelScene.generate</text>
<text text-anchor="middle" x="79.5" y="-61" font-family="Helvetica,sans-Serif" font-size="10.00">_unique_component_name</text>
</a>
</g>
</g>
<!-- Node2 -->
<g id="Node000002" class="node">
<title>Node2</title>
<g id="a_Node000002"><a xlink:href="classfuse_1_1core_1_1ui_1_1model__scene_1_1ModelScene.html#a99b08f5b1304b314ee3c3efd5dfa19d9" target="_top" xlink:title=" ">
<polygon fill="white" stroke="#666666" points="350,-95 195,-95 195,-54 350,-54 350,-95"/>
<text text-anchor="start" x="203" y="-83" font-family="Helvetica,sans-Serif" font-size="10.00">fuse.core.ui.model</text>
<text text-anchor="start" x="203" y="-72" font-family="Helvetica,sans-Serif" font-size="10.00">_scene.ModelScene.existing</text>
<text text-anchor="middle" x="272.5" y="-61" font-family="Helvetica,sans-Serif" font-size="10.00">_component_names</text>
</a>
</g>
</g>
<!-- Node1&#45;&gt;Node2 -->
<g id="edge1_Node000001_Node000002" class="edge">
<title>Node1&#45;&gt;Node2</title>
<g id="a_edge1_Node000001_Node000002"><a xlink:title=" ">
<path fill="none" stroke="#63b8ff" d="M159.01,-74.5C167.52,-74.5 176.21,-74.5 184.8,-74.5"/>
<polygon fill="#63b8ff" stroke="#63b8ff" points="184.83,-78 194.83,-74.5 184.83,-71 184.83,-78"/>
</a>
</g>
</g>
<!-- Node3 -->
<g id="Node000003" class="node">
<title>Node3</title>
<g id="a_Node000003"><a xlink:href="classfuse_1_1core_1_1model_1_1composite__flattening_1_1FlattenedScene.html#adafd82e063db893d7978e3f46c633c28" target="_top" xlink:title=" ">
<polygon fill="white" stroke="#666666" points="624,-137.5 386,-137.5 386,-107.5 624,-107.5 624,-137.5"/>
<text text-anchor="start" x="394" y="-125.5" font-family="Helvetica,sans-Serif" font-size="10.00">fuse.core.model.composite</text>
<text text-anchor="middle" x="505" y="-114.5" font-family="Helvetica,sans-Serif" font-size="10.00">_flattening.FlattenedScene.component_items</text>
</a>
</g>
</g>
<!-- Node2&#45;&gt;Node3 -->
<g id="edge2_Node000002_Node000003" class="edge">
<title>Node2&#45;&gt;Node3</title>
<g id="a_edge2_Node000002_Node000003"><a xlink:title=" ">
<path fill="none" stroke="#63b8ff" d="M350.03,-90.93C362.06,-93.48 374.37,-96.08 386,-98.5 396.84,-100.76 408.25,-103.11 419.53,-105.42"/>
<polygon fill="#63b8ff" stroke="#63b8ff" points="418.89,-108.86 429.39,-107.44 420.29,-102 418.89,-108.86"/>
</a>
</g>
</g>
<!-- Node4 -->
<g id="Node000004" class="node">
<title>Node4</title>
<g id="a_Node000004"><a xlink:href="classfuse_1_1core_1_1ui_1_1model__scene_1_1ModelScene.html#afe1202d65f4678c1893739c38b42dd01" target="_top" xlink:title=" ">
<polygon fill="white" stroke="#666666" points="606.5,-89.5 403.5,-89.5 403.5,-59.5 606.5,-59.5 606.5,-89.5"/>
<text text-anchor="start" x="411.5" y="-77.5" font-family="Helvetica,sans-Serif" font-size="10.00">fuse.core.ui.model</text>
<text text-anchor="middle" x="505" y="-66.5" font-family="Helvetica,sans-Serif" font-size="10.00">_scene.ModelScene.component_items</text>
</a>
</g>
</g>
<!-- Node2&#45;&gt;Node4 -->
<g id="edge3_Node000002_Node000004" class="edge">
<title>Node2&#45;&gt;Node4</title>
<g id="a_edge3_Node000002_Node000004"><a xlink:title=" ">
<path fill="none" stroke="#63b8ff" d="M350.25,-74.5C364.09,-74.5 378.75,-74.5 393.33,-74.5"/>
<polygon fill="#63b8ff" stroke="#63b8ff" points="393.39,-78 403.39,-74.5 393.39,-71 393.39,-78"/>
</a>
</g>
</g>
<!-- Node5 -->
<g id="Node000005" class="node">
<title>Node5</title>
<g id="a_Node000005"><a xlink:href="classfuse_1_1plugins_1_1community_1_1sst_1_1external__validation_1_1fixtures_1_1SSTExternalValidationScene.html#a4689f4250a8d0755e053ec4b746ba53e" target="_top" xlink:title=" ">
<polygon fill="white" stroke="#666666" points="615.5,-41 394.5,-41 394.5,0 615.5,0 615.5,-41"/>
<text text-anchor="start" x="402.5" y="-29" font-family="Helvetica,sans-Serif" font-size="10.00">fuse.plugins.community.sst.external</text>
<text text-anchor="start" x="402.5" y="-18" font-family="Helvetica,sans-Serif" font-size="10.00">_validation.fixtures.SSTExternalValidation</text>
<text text-anchor="middle" x="505" y="-7" font-family="Helvetica,sans-Serif" font-size="10.00">Scene.component_items</text>
</a>
</g>
</g>
<!-- Node2&#45;&gt;Node5 -->
<g id="edge4_Node000002_Node000005" class="edge">
<title>Node2&#45;&gt;Node5</title>
<g id="a_edge4_Node000002_Node000005"><a xlink:title=" ">
<path fill="none" stroke="#63b8ff" d="M350.25,-56.52C368.32,-52.29 387.81,-47.72 406.65,-43.31"/>
<polygon fill="#63b8ff" stroke="#63b8ff" points="407.49,-46.7 416.43,-41.01 405.9,-39.89 407.49,-46.7"/>
</a>
</g>
</g>
</g>
</svg>
