<?xml version="1.0" encoding="UTF-8" standalone="no"?>
<!DOCTYPE svg PUBLIC "-//W3C//DTD SVG 1.1//EN"
 "http://www.w3.org/Graphics/SVG/1.1/DTD/svg11.dtd">
<!-- Generated by graphviz version 2.43.0 (0)
 -->
<!-- Title: fuse.core.ui.model_view.ModelView.set_toolbar_position Pages: 1 -->
<svg width="324pt" height="116pt"
 viewBox="0.00 0.00 324.00 115.50" xmlns="http://www.w3.org/2000/svg" xmlns:xlink="http://www.w3.org/1999/xlink">
<g id="graph0" class="graph" transform="scale(1 1) rotate(0) translate(4 111.5)">
<title>fuse.core.ui.model_view.ModelView.set_toolbar_position</title>
<!-- Node1 -->
<g id="Node000001" class="node">
<title>Node1</title>
<g id="a_Node000001"><a xlink:title=" ">
<polygon fill="#999999" stroke="#666666" points="316,-71.5 197,-71.5 197,-30.5 316,-30.5 316,-71.5"/>
<text text-anchor="start" x="205" y="-59.5" font-family="Helvetica,sans-Serif" font-size="10.00">fuse.core.ui.model</text>
<text text-anchor="start" x="205" y="-48.5" font-family="Helvetica,sans-Serif" font-size="10.00">_view.ModelView.set</text>
<text text-anchor="middle" x="256.5" y="-37.5" font-family="Helvetica,sans-Serif" font-size="10.00">_toolbar_position</text>
</a>
</g>
</g>
<!-- Node2 -->
<g id="Node000002" class="node">
<title>Node2</title>
<g id="a_Node000002"><a xlink:href="classfuse_1_1core_1_1ui_1_1model__view_1_1ModelView.html#a6f193e3fa354e8cbb7dbc002426bf6cf" target="_top" xlink:title=" ">
<polygon fill="white" stroke="#666666" points="146,-107.5 15,-107.5 15,-66.5 146,-66.5 146,-107.5"/>
<text text-anchor="start" x="23" y="-95.5" font-family="Helvetica,sans-Serif" font-size="10.00">fuse.core.ui.model</text>
<text text-anchor="start" x="23" y="-84.5" font-family="Helvetica,sans-Serif" font-size="10.00">_view.ModelView.apply</text>
<text text-anchor="middle" x="80.5" y="-73.5" font-family="Helvetica,sans-Serif" font-size="10.00">_editor_state</text>
</a>
</g>
</g>
<!-- Node1&#45;&gt;Node2 -->
<g id="edge1_Node000001_Node000002" class="edge">
<title>Node1&#45;&gt;Node2</title>
<g id="a_edge1_Node000001_Node000002"><a xlink:title=" ">
<path fill="none" stroke="#63b8ff" d="M186.52,-65.27C173.17,-68.03 159.22,-70.92 146.02,-73.65"/>
<polygon fill="#63b8ff" stroke="#63b8ff" points="187.51,-68.64 196.59,-63.19 186.09,-61.79 187.51,-68.64"/>
</a>
</g>
</g>
<!-- Node3 -->
<g id="Node000003" class="node">
<title>Node3</title>
<g id="a_Node000003"><a xlink:href="classfuse_1_1core_1_1ui_1_1model__view_1_1ModelView.html#af22921e675afe841037af067449f9c03" target="_top" xlink:title=" ">
<polygon fill="white" stroke="#666666" points="161,-30 0,-30 0,0 161,0 161,-30"/>
<text text-anchor="start" x="8" y="-18" font-family="Helvetica,sans-Serif" font-size="10.00">fuse.core.ui.model</text>
<text text-anchor="middle" x="80.5" y="-7" font-family="Helvetica,sans-Serif" font-size="10.00">_view.ModelView.resizeEvent</text>
</a>
</g>
</g>
<!-- Node1&#45;&gt;Node3 -->
<g id="edge2_Node000001_Node000003" class="edge">
<title>Node1&#45;&gt;Node3</title>
<g id="a_edge2_Node000001_Node000003"><a xlink:title=" ">
<path fill="none" stroke="#63b8ff" d="M186.55,-36.73C175.93,-34.54 164.93,-32.26 154.24,-30.05"/>
<polygon fill="#63b8ff" stroke="#63b8ff" points="186.09,-40.21 196.59,-38.81 187.51,-33.36 186.09,-40.21"/>
</a>
</g>
</g>
<!-- Node3&#45;&gt;Node3 -->
<g id="edge3_Node000003_Node000003" class="edge">
<title>Node3&#45;&gt;Node3</title>
<g id="a_edge3_Node000003_Node000003"><a xlink:title=" ">
<path fill="none" stroke="#63b8ff" d="M111.31,-40.6C107.1,-44.97 96.83,-48 80.5,-48 53,-48 42.69,-39.41 49.56,-30.28"/>
<polygon fill="#63b8ff" stroke="#63b8ff" points="114.81,-40.32 111.44,-30.28 107.81,-40.23 114.81,-40.32"/>
</a>
</g>
</g>
</g>
</svg>
