<?xml version="1.0" encoding="UTF-8" standalone="no"?>
<!DOCTYPE svg PUBLIC "-//W3C//DTD SVG 1.1//EN"
 "http://www.w3.org/Graphics/SVG/1.1/DTD/svg11.dtd">
<!-- Generated by graphviz version 2.43.0 (0)
 -->
<!-- Title: fuse.plugins.community.gem5.export_python.export_gem5_python Pages: 1 -->
<svg width="908pt" height="182pt"
 viewBox="0.00 0.00 908.00 182.00" xmlns="http://www.w3.org/2000/svg" xmlns:xlink="http://www.w3.org/1999/xlink">
<g id="graph0" class="graph" transform="scale(1 1) rotate(0) translate(4 178)">
<title>fuse.plugins.community.gem5.export_python.export_gem5_python</title>
<!-- Node1 -->
<g id="Node000001" class="node">
<title>Node1</title>
<g id="a_Node000001"><a xlink:title=" ">
<polygon fill="#999999" stroke="#666666" points="198,-102 0,-102 0,-72 198,-72 198,-102"/>
<text text-anchor="start" x="8" y="-90" font-family="Helvetica,sans-Serif" font-size="10.00">fuse.plugins.community.gem5.export</text>
<text text-anchor="middle" x="99" y="-79" font-family="Helvetica,sans-Serif" font-size="10.00">_python.export_gem5_python</text>
</a>
</g>
</g>
<!-- Node2 -->
<g id="Node000002" class="node">
<title>Node2</title>
<g id="a_Node000002"><a xlink:href="namespacefuse_1_1plugins_1_1community_1_1gem5_1_1export__python.html#ace2d5fa384ff60f4068bdd77f286feb1" target="_top" xlink:title=" ">
<polygon fill="white" stroke="#666666" points="432,-102 234,-102 234,-72 432,-72 432,-102"/>
<text text-anchor="start" x="242" y="-90" font-family="Helvetica,sans-Serif" font-size="10.00">fuse.plugins.community.gem5.export</text>
<text text-anchor="middle" x="333" y="-79" font-family="Helvetica,sans-Serif" font-size="10.00">_python.build_gem5_python</text>
</a>
</g>
</g>
<!-- Node1&#45;&gt;Node2 -->
<g id="edge1_Node000001_Node000002" class="edge">
<title>Node1&#45;&gt;Node2</title>
<g id="a_edge1_Node000001_Node000002"><a xlink:title=" ">
<path fill="none" stroke="#63b8ff" d="M198.05,-87C206.59,-87 215.25,-87 223.86,-87"/>
<polygon fill="#63b8ff" stroke="#63b8ff" points="223.93,-90.5 233.93,-87 223.93,-83.5 223.93,-90.5"/>
</a>
</g>
</g>
<!-- Node3 -->
<g id="Node000003" class="node">
<title>Node3</title>
<g id="a_Node000003"><a xlink:href="namespacefuse_1_1plugins_1_1community_1_1gem5_1_1export__python.html#a8bb3aa7075f9437c2123d5d1bdc16127" target="_top" xlink:title=" ">
<polygon fill="white" stroke="#666666" points="666,-174 468,-174 468,-144 666,-144 666,-174"/>
<text text-anchor="start" x="476" y="-162" font-family="Helvetica,sans-Serif" font-size="10.00">fuse.plugins.community.gem5.export</text>
<text text-anchor="middle" x="567" y="-151" font-family="Helvetica,sans-Serif" font-size="10.00">_python._gem5_nodes</text>
</a>
</g>
</g>
<!-- Node2&#45;&gt;Node3 -->
<g id="edge2_Node000002_Node000003" class="edge">
<title>Node2&#45;&gt;Node3</title>
<g id="a_edge2_Node000002_Node000003"><a xlink:title=" ">
<path fill="none" stroke="#63b8ff" d="M372.64,-102.04C399.22,-112.1 435.46,-125.22 468,-135 475.37,-137.22 483.1,-139.38 490.85,-141.44"/>
<polygon fill="#63b8ff" stroke="#63b8ff" points="490.08,-144.86 500.64,-144 491.85,-138.09 490.08,-144.86"/>
</a>
</g>
</g>
<!-- Node4 -->
<g id="Node000004" class="node">
<title>Node4</title>
<g id="a_Node000004"><a xlink:href="namespacefuse_1_1plugins_1_1community_1_1gem5_1_1export__python.html#a2016c761044fc57873acbb66f39134f9" target="_top" xlink:title=" ">
<polygon fill="white" stroke="#666666" points="666,-126 468,-126 468,-96 666,-96 666,-126"/>
<text text-anchor="start" x="476" y="-114" font-family="Helvetica,sans-Serif" font-size="10.00">fuse.plugins.community.gem5.export</text>
<text text-anchor="middle" x="567" y="-103" font-family="Helvetica,sans-Serif" font-size="10.00">_python._link_assignment</text>
</a>
</g>
</g>
<!-- Node2&#45;&gt;Node4 -->
<g id="edge3_Node000002_Node000004" class="edge">
<title>Node2&#45;&gt;Node4</title>
<g id="a_edge3_Node000002_Node000004"><a xlink:title=" ">
<path fill="none" stroke="#63b8ff" d="M432.05,-97.14C440.59,-98.03 449.25,-98.92 457.86,-99.81"/>
<polygon fill="#63b8ff" stroke="#63b8ff" points="457.62,-103.31 467.93,-100.85 458.34,-96.34 457.62,-103.31"/>
</a>
</g>
</g>
<!-- Node6 -->
<g id="Node000006" class="node">
<title>Node6</title>
<g id="a_Node000006"><a xlink:href="namespacefuse_1_1plugins_1_1community_1_1gem5_1_1export__python.html#a2e7a147a03cd90c6f912649b6d1db680" target="_top" xlink:title=" ">
<polygon fill="white" stroke="#666666" points="666,-78 468,-78 468,-48 666,-48 666,-78"/>
<text text-anchor="start" x="476" y="-66" font-family="Helvetica,sans-Serif" font-size="10.00">fuse.plugins.community.gem5.export</text>
<text text-anchor="middle" x="567" y="-55" font-family="Helvetica,sans-Serif" font-size="10.00">_python._node_type</text>
</a>
</g>
</g>
<!-- Node2&#45;&gt;Node6 -->
<g id="edge5_Node000002_Node000006" class="edge">
<title>Node2&#45;&gt;Node6</title>
<g id="a_edge5_Node000002_Node000006"><a xlink:title=" ">
<path fill="none" stroke="#63b8ff" d="M432.05,-76.86C440.59,-75.97 449.25,-75.08 457.86,-74.19"/>
<polygon fill="#63b8ff" stroke="#63b8ff" points="458.34,-77.66 467.93,-73.15 457.62,-70.69 458.34,-77.66"/>
</a>
</g>
</g>
<!-- Node7 -->
<g id="Node000007" class="node">
<title>Node7</title>
<g id="a_Node000007"><a xlink:href="namespacefuse_1_1plugins_1_1community_1_1gem5_1_1export__python.html#a079d93713b3c2596d1632eaf13ac1c77" target="_top" xlink:title=" ">
<polygon fill="white" stroke="#666666" points="666,-30 468,-30 468,0 666,0 666,-30"/>
<text text-anchor="start" x="476" y="-18" font-family="Helvetica,sans-Serif" font-size="10.00">fuse.plugins.community.gem5.export</text>
<text text-anchor="middle" x="567" y="-7" font-family="Helvetica,sans-Serif" font-size="10.00">_python._node_var</text>
</a>
</g>
</g>
<!-- Node2&#45;&gt;Node7 -->
<g id="edge6_Node000002_Node000007" class="edge">
<title>Node2&#45;&gt;Node7</title>
<g id="a_edge6_Node000002_Node000007"><a xlink:title=" ">
<path fill="none" stroke="#63b8ff" d="M372.64,-71.96C399.22,-61.9 435.46,-48.78 468,-39 475.37,-36.78 483.1,-34.62 490.85,-32.56"/>
<polygon fill="#63b8ff" stroke="#63b8ff" points="491.85,-35.91 500.64,-30 490.08,-29.14 491.85,-35.91"/>
</a>
</g>
</g>
<!-- Node5 -->
<g id="Node000005" class="node">
<title>Node5</title>
<g id="a_Node000005"><a xlink:href="namespacefuse_1_1plugins_1_1community_1_1gem5_1_1export__python.html#a757b5301a81a22837b906b3604c833eb" target="_top" xlink:title=" ">
<polygon fill="white" stroke="#666666" points="900,-126 702,-126 702,-96 900,-96 900,-126"/>
<text text-anchor="start" x="710" y="-114" font-family="Helvetica,sans-Serif" font-size="10.00">fuse.plugins.community.gem5.export</text>
<text text-anchor="middle" x="801" y="-103" font-family="Helvetica,sans-Serif" font-size="10.00">_python._port_iface</text>
</a>
</g>
</g>
<!-- Node4&#45;&gt;Node5 -->
<g id="edge4_Node000004_Node000005" class="edge">
<title>Node4&#45;&gt;Node5</title>
<g id="a_edge4_Node000004_Node000005"><a xlink:title=" ">
<path fill="none" stroke="#63b8ff" d="M666.05,-111C674.59,-111 683.25,-111 691.86,-111"/>
<polygon fill="#63b8ff" stroke="#63b8ff" points="691.93,-114.5 701.93,-111 691.93,-107.5 691.93,-114.5"/>
</a>
</g>
</g>
<!-- Node8 -->
<g id="Node000008" class="node">
<title>Node8</title>
<g id="a_Node000008"><a xlink:href="namespacefuse_1_1plugins_1_1community_1_1gem5_1_1export__python.html#afdcc1c74e3e378b3d6cf607b4b87b9aa" target="_top" xlink:title=" ">
<polygon fill="white" stroke="#666666" points="900,-30 702,-30 702,0 900,0 900,-30"/>
<text text-anchor="start" x="710" y="-18" font-family="Helvetica,sans-Serif" font-size="10.00">fuse.plugins.community.gem5.export</text>
<text text-anchor="middle" x="801" y="-7" font-family="Helvetica,sans-Serif" font-size="10.00">_python._clean_identifier</text>
</a>
</g>
</g>
<!-- Node7&#45;&gt;Node8 -->
<g id="edge7_Node000007_Node000008" class="edge">
<title>Node7&#45;&gt;Node8</title>
<g id="a_edge7_Node000007_Node000008"><a xlink:title=" ">
<path fill="none" stroke="#63b8ff" d="M666.05,-15C674.59,-15 683.25,-15 691.86,-15"/>
<polygon fill="#63b8ff" stroke="#63b8ff" points="691.93,-18.5 701.93,-15 691.93,-11.5 691.93,-18.5"/>
</a>
</g>
</g>
</g>
</svg>
