<?xml version="1.0" encoding="UTF-8" standalone="no"?>
<!DOCTYPE svg PUBLIC "-//W3C//DTD SVG 1.1//EN"
 "http://www.w3.org/Graphics/SVG/1.1/DTD/svg11.dtd">
<!-- Generated by graphviz version 2.43.0 (0)
 -->
<!-- Title: fuse.core.plugin_runtime.manager.load_all_palette_items Pages: 1 -->
<svg width="724pt" height="86pt"
 viewBox="0.00 0.00 724.00 86.00" xmlns="http://www.w3.org/2000/svg" xmlns:xlink="http://www.w3.org/1999/xlink">
<g id="graph0" class="graph" transform="scale(1 1) rotate(0) translate(4 82)">
<title>fuse.core.plugin_runtime.manager.load_all_palette_items</title>
<!-- Node1 -->
<g id="Node000001" class="node">
<title>Node1</title>
<g id="a_Node000001"><a xlink:title=" ">
<polygon fill="#999999" stroke="#666666" points="208,-54 0,-54 0,-24 208,-24 208,-54"/>
<text text-anchor="start" x="8" y="-42" font-family="Helvetica,sans-Serif" font-size="10.00">fuse.core.plugin_runtime.manager.load</text>
<text text-anchor="middle" x="104" y="-31" font-family="Helvetica,sans-Serif" font-size="10.00">_all_palette_items</text>
</a>
</g>
</g>
<!-- Node2 -->
<g id="Node000002" class="node">
<title>Node2</title>
<g id="a_Node000002"><a xlink:href="namespacefuse_1_1core_1_1plugin__runtime_1_1manager.html#a03658d7613cfa99c9a1953d109b7f1c5" target="_top" xlink:title=" ">
<polygon fill="white" stroke="#666666" points="452,-54 244,-54 244,-24 452,-24 452,-54"/>
<text text-anchor="start" x="252" y="-42" font-family="Helvetica,sans-Serif" font-size="10.00">fuse.core.plugin_runtime.manager.load</text>
<text text-anchor="middle" x="348" y="-31" font-family="Helvetica,sans-Serif" font-size="10.00">_enabled_plugins</text>
</a>
</g>
</g>
<!-- Node1&#45;&gt;Node2 -->
<g id="edge1_Node000001_Node000002" class="edge">
<title>Node1&#45;&gt;Node2</title>
<g id="a_edge1_Node000001_Node000002"><a xlink:title=" ">
<path fill="none" stroke="#63b8ff" d="M208.33,-39C216.64,-39 225.07,-39 233.44,-39"/>
<polygon fill="#63b8ff" stroke="#63b8ff" points="233.63,-42.5 243.63,-39 233.63,-35.5 233.63,-42.5"/>
</a>
</g>
</g>
<!-- Node3 -->
<g id="Node000003" class="node">
<title>Node3</title>
<g id="a_Node000003"><a xlink:href="namespacefuse_1_1core_1_1plugin__runtime_1_1manager.html#af0bb917f026f08e34b41cebcf52b6aae" target="_top" xlink:title=" ">
<polygon fill="white" stroke="#666666" points="695.5,-78 508.5,-78 508.5,-48 695.5,-48 695.5,-78"/>
<text text-anchor="start" x="516.5" y="-66" font-family="Helvetica,sans-Serif" font-size="10.00">fuse.core.plugin_runtime.manager.</text>
<text text-anchor="middle" x="602" y="-55" font-family="Helvetica,sans-Serif" font-size="10.00">_load_register_callable</text>
</a>
</g>
</g>
<!-- Node2&#45;&gt;Node3 -->
<g id="edge2_Node000002_Node000003" class="edge">
<title>Node2&#45;&gt;Node3</title>
<g id="a_edge2_Node000002_Node000003"><a xlink:title=" ">
<path fill="none" stroke="#63b8ff" d="M452.23,-48.83C467.36,-50.27 482.94,-51.76 498.06,-53.2"/>
<polygon fill="#63b8ff" stroke="#63b8ff" points="498.16,-56.72 508.45,-54.19 498.83,-49.75 498.16,-56.72"/>
</a>
</g>
</g>
<!-- Node4 -->
<g id="Node000004" class="node">
<title>Node4</title>
<g id="a_Node000004"><a xlink:href="namespacefuse_1_1core_1_1plugin__runtime_1_1manager.html#a4f66d038ac7c043a853057994cab791b" target="_top" xlink:title=" ">
<polygon fill="white" stroke="#666666" points="716,-30 488,-30 488,0 716,0 716,-30"/>
<text text-anchor="start" x="496" y="-18" font-family="Helvetica,sans-Serif" font-size="10.00">fuse.core.plugin_runtime.manager.discover</text>
<text text-anchor="middle" x="602" y="-7" font-family="Helvetica,sans-Serif" font-size="10.00">_plugin_manifests</text>
</a>
</g>
</g>
<!-- Node2&#45;&gt;Node4 -->
<g id="edge3_Node000002_Node000004" class="edge">
<title>Node2&#45;&gt;Node4</title>
<g id="a_edge3_Node000002_Node000004"><a xlink:title=" ">
<path fill="none" stroke="#63b8ff" d="M452.23,-29.17C460.63,-28.37 469.17,-27.56 477.69,-26.74"/>
<polygon fill="#63b8ff" stroke="#63b8ff" points="478.06,-30.22 487.68,-25.79 477.4,-23.26 478.06,-30.22"/>
</a>
</g>
</g>
</g>
</svg>
